<svg id="Layer_1" data-name="Layer 1" xmlns="http://www.w3.org/2000/svg" viewBox="0 0 156.64 141.05"><defs><style>.cls-1{fill:#282525;}</style></defs><title>difference-illo-arrow</title><path class="cls-1" d="M154.51,76.06l.1-.12.16-.19.14-.17.11-.14.14-.2.09-.13.14-.21.08-.13.12-.21.08-.14.1-.21.08-.16.09-.19.08-.19.07-.17.08-.21.05-.15.08-.24,0-.13.07-.26,0-.12.06-.27,0-.12c0-.09,0-.18,0-.27s0-.1,0-.14,0-.17,0-.25,0-.13,0-.19,0-.14,0-.21,0-.24,0-.36v-.09c0-.12,0-.24,0-.36s0-.14,0-.21,0-.13,0-.19,0-.17,0-.25,0-.1,0-.14,0-.18,0-.27l0-.13-.06-.27,0-.12-.07-.26,0-.13-.08-.24-.05-.15-.08-.21-.07-.17-.08-.18-.09-.19-.08-.16-.11-.21-.08-.14-.12-.22-.08-.12-.14-.21-.08-.12-.14-.2-.11-.14-.14-.18-.15-.18-.11-.13-.29-.3L91.95,2.41A8.24,8.24,0,1,0,80.29,14.07L128.5,62.28H8.24a8.24,8.24,0,0,0,0,16.48H128.5L80.29,127a8.24,8.24,0,0,0,11.66,11.66l62.28-62.28Z"/></svg>