<svg xmlns="http://www.w3.org/2000/svg"><defs><style>.cls-1{fill:#fff;}.cls-2{fill:#d7a22a;}.cls-3{fill:#9f792c;}.cls-4{fill:#00839c;}</style><style>.cls-1{fill:#282525;}</style><style>.cls-1{fill:#231f20;}</style> <rect id="jays-color-SVGID_1_" width="72" height="72"/> <style>.cls-1{fill:#231f20;}</style></defs><symbol viewBox="0 0 250.54 187.64" id="JAC"><title>JAC</title><g id="JAC-JAX"><path d="M240.36,87.64l-.19,0c-.72.11-2.11-.11-1.93-1.12.11-.62,1-1.15,1.52-1.37A23.55,23.55,0,0,0,244.19,83a9.27,9.27,0,0,0,1.4-1.12c.12-.11.75-.62.73-.81a14.73,14.73,0,0,0-1.1-4.08,9.76,9.76,0,0,1-.82,1.49,6.21,6.21,0,0,1-2.28,2.32c-.56.31-1.64.64-2.13-.32s.88-1.77.88-1.77a8.26,8.26,0,0,0,3.19-3.93,12.59,12.59,0,0,0-2.14-2.58,23,23,0,0,1-10.57,11c-5.49,2.67-10.53,5.77-13.75,9.46-.45.53-.88,1.07-1.26,1.63h.06c7.76.86,11.56,4.14,12.81,5.73.09.11.16.21.22.3h0c.48-.09,8.26-1.49,13.08-6.8H242c-1.19,0-5.73.08-4.59-2.21.38-.76,1.75-.56,2.43-.51a30.46,30.46,0,0,0,3.49.13c1.61-.09,1.91-1.55,2.32-2.88a19,19,0,0,0,.71-3.65C244.6,86.69,241.41,87.45,240.36,87.64Zm-17.16,12.59c-1.72-.4-3.83.73-5,1.49a2.31,2.31,0,0,0-1.45-1.15c-2.41-.81-5.38,1.48-5.38,1.48.25-1.75-2.15-1.25-2.25-1.24a21.41,21.41,0,0,0-5.45,2c-2.6.91-6,2-9.85,2.93a30.26,30.26,0,0,1,.49,6.91c4-2.09,7.38-6.39,9.41-9.49a19.64,19.64,0,0,0,2.2,4.91,33.89,33.89,0,0,0,5.34-4.3c.87,1.57.72,4.87.72,4.87a15.54,15.54,0,0,0,4.91-2.9A45,45,0,0,1,211.56,119c4.77-1.79,13.87-11.48,14.46-14.12S225.72,100.8,223.19,100.23Zm-43.53,7.36c.81,8.25-6.52,15.7-6.52,15.7C185,120,191.26,110.4,193.17,107c.2-.51.35-.92.45-1.2A59,59,0,0,1,179.67,107.59Zm11.15,26.07s-7.31,11.71-10.6,14.13a10.65,10.65,0,0,0-1.76-2.86s-4,2.71-4.81,4.2c.08-.15-.72-1.27-.81-1.41a17.52,17.52,0,0,0-1.47-2.14,11,11,0,0,0-4.29,4,21.19,21.19,0,0,0,1.56-4.21,20.59,20.59,0,0,0,.47-2.75,22.34,22.34,0,0,0-1.11-9.44s-3.79,9.3-8.16,13.85-6.77,5.71-7,6.35-.33,2.94,4.8,2.29a16.34,16.34,0,0,0,8.75-4.49,48.58,48.58,0,0,1,13.19-.46,5.64,5.64,0,0,0,4.16,1.69C186.12,152.22,191.19,142.67,190.81,133.66Zm-35.17-28.83c-3.09-9.69-14.54-11.57-14.54-11.57s9.38,3.83,9.63,30.93c.08,9.12,2.87,13,2.87,13-4.73-2.52-6-11.83-6.4-19-.22-3.66-1.7-21.51-15.35-25.91-8.29-2.68-12.27-.4-12.27-.4a17,17,0,0,1,10,8.1c5.45,9.89,1.57,27.37,5.63,36.71,5,11.55,14.22,14.66,14.22,14.66,12.06-6.48,14.64-16.54,14.64-16.54C153.76,129.39,158.72,114.52,155.64,104.82Zm15.74,33.38.42,4.67,3.24,2.11C176,141.21,171.38,138.2,171.38,138.2ZM205.7,73.93a9.44,9.44,0,0,0-5,1s8.26,0,11.28,2.61,2.22,4.64,2.22,4.64A72.84,72.84,0,0,1,218,89s5.63-5.23,6-8.86C224,80.17,213.08,74.6,205.7,73.93Zm25-11.72s-3.54,4.36-5.29,3,.92-3.13.35-6.63-12-15.25-26.46-23.92c0,0,6.69,2.77,13.15,6.19l.15.08c1.43.72,2.93,1.58,4.34,2.46a36.28,36.28,0,0,1,5,3.52A7.23,7.23,0,0,0,222.95,40a5.76,5.76,0,0,0-.31-.64l0-.08a12,12,0,0,0-.87-1.29,6.25,6.25,0,0,0-1.17-.62c-.91-.35-1.77-.49-2.38-.79a24.6,24.6,0,0,1-1.85-2.08,2.1,2.1,0,0,0,.24,1.35,5.71,5.71,0,0,0-2.05-1.15,9.14,9.14,0,0,1-2.47-.83c-.3-.23-.9-.76-.9-.76a3.1,3.1,0,0,0,.17.83,1.34,1.34,0,0,1-1.18-1.13,1.4,1.4,0,0,1,.65-1.49,1.67,1.67,0,0,1,0-.67,10,10,0,0,0,1.33,1.26,3.11,3.11,0,0,0-.17-1.74L211.6,30c-.33-.18-.66-.35-1-.49s-15.15-8.56-22.21-12.1a8.88,8.88,0,0,1-2-.42s-1.18-.55-1.37-1.11a.88.88,0,0,0,.09.61,7.85,7.85,0,0,1,1.12,1.87s-1.17-.69-2.14-1.19a24.84,24.84,0,0,1-3.63-1.69A2.16,2.16,0,0,1,180,15l-.11-.14a1.67,1.67,0,0,1-.21-.44c0-.06,0-.12,0-.17s0,0,0-.08a1,1,0,0,1,0-.19,1,1,0,0,1,0-.13l.06,0,0,0,.07.06a4,4,0,0,0,1.4.91l.13,0,0-.06-.06-.06-.13-.15a6.56,6.56,0,0,1-1-1.39,84.07,84.07,0,0,0-22-7.73c-13.42-2.65-22.42-.42-22.42-.42A34.68,34.68,0,0,1,143.9,7.2a4.53,4.53,0,0,0,1.22-.59,2.85,2.85,0,0,1,1.65-.68c.34,0,1.81,1.75,1.81,1.75a23.6,23.6,0,0,0-.44-2.49,10.17,10.17,0,0,1,2,0c.81.19,1.47.46,1.76.46s.4-.34.4-.34.51.33.51.74c0,0,1.14.79,1.14,1.54a8.84,8.84,0,0,0,0,2.16s-.28.17-.74-.57a2.73,2.73,0,0,1-1.47.63,2.43,2.43,0,0,0-.9.18c2.54,1.14,5.42,2.54,8.66,4.27l.64.46a5.28,5.28,0,0,1,.44-1.24,2.07,2.07,0,0,1,.4.47,3.68,3.68,0,0,0,0-1,4,4,0,0,1,1.6-.81,3.32,3.32,0,0,0,1.21-.2,2,2,0,0,0-.08-1.17,3.38,3.38,0,0,1,1.42,1.57,4.79,4.79,0,0,0,.07-1.08,6.29,6.29,0,0,1,2.15,0,2.94,2.94,0,0,1,1.72.88c.2.33.76,1.46.45,1.7s-.89.34-1.06.61-.23.5-.47.67a1.35,1.35,0,0,1-.54.21,3.56,3.56,0,0,0,.17,1.4,1,1,0,0,1-.72-.63,1.12,1.12,0,0,1-.23.9,2,2,0,0,1-.9.69s-.83-.78-.9-1.09c0,0,.09,1.85-.23,1.51,0,0-1.74-1.54-2.09-1.73a6.33,6.33,0,0,1-1,.08,3.1,3.1,0,0,1-1.54-.77s0,.4.53.81a4,4,0,0,1-.71-.17,1.79,1.79,0,0,1-.84.48s.54.6.77.83a3.34,3.34,0,0,1-1.54-.69,4.32,4.32,0,0,1-1.29-.17,3.23,3.23,0,0,0-1.68,0,2.07,2.07,0,0,1-1.14-.07,10.78,10.78,0,0,1-1.64-.77,2.35,2.35,0,0,0,.4.71s-.1.44-1.08.17-1-.57-1.51-.88-.84-.74-.74-1.1a1.48,1.48,0,0,1,.4-.64,3.36,3.36,0,0,0,.83.51,8.35,8.35,0,0,1-1-1.54l.71.13s.17-.64,1.58-.94c.47-.1.87-.17,1.19-.22a154.92,154.92,0,0,0-15.58-4,2.58,2.58,0,0,0-.26.36,4.86,4.86,0,0,0-.24.46,3.64,3.64,0,0,1-.77,1.26s-2.91-.91-3.85-1.38a20.24,20.24,0,0,0,2.5,1.76s-.88,1.47-4,1.13a6.15,6.15,0,0,1-2.54.5,5.58,5.58,0,0,1-3.15-1.42,1.86,1.86,0,0,1,.89-2.47s1.63,1,2.44,1.45c0,0-1.44-1.79-1.33-2.37a10.56,10.56,0,0,1,1.13-.79c-.72-.1-1.44-.19-2.17-.26a104.4,104.4,0,0,0-17.71-.56c.42.6.33,1.17.67,1.77A.74.74,0,0,1,109,8.61a17,17,0,0,0-2.28-1.14A10.24,10.24,0,0,1,108,9a8,8,0,0,1-2.87.55,8.67,8.67,0,0,0-3,1.1,6.18,6.18,0,0,1-2-1.57l-.31-.27-.08-.07,0,0-.06,0a.73.73,0,0,1,.08.2,0,0,0,0,0,0,0,0,0,0,0,0,0,0l.13.32c.09.21.19.42.3.63a19.37,19.37,0,0,0,1.08,1.76l0,0,.43.69a2,2,0,0,1,.15.22l0,0,0,.08a.55.55,0,0,0,.06.08l0,0a.2.2,0,0,1,0,.06c-.16-.2-.66-.3-.9-.38h0a7.2,7.2,0,0,1-1.19-.62h0c-.17-.12-.68-.58-.89-.51l-.12,0-.08,0-.16,0-.2,0-.21,0-.3.06-.54.06h-.75a7.2,7.2,0,0,1-4-2.29,1.69,1.69,0,0,1-.53-1.22q-1.72.41-3.37.85c-1.64.38-10.56,2.38-19.68,4.43a10.33,10.33,0,0,1-.21,1.67,1.72,1.72,0,0,0,.51,1.11,9.18,9.18,0,0,1-2.88-.61,8,8,0,0,0,2,1.6,1.79,1.79,0,0,1-.9,1.11,4.05,4.05,0,0,1-2.06.11c-.86-.06-1.6.35-2.7.4a5.9,5.9,0,0,1-2.42-.62,3,3,0,0,0,2.1-.7c-1.54-.17-2-.74-2.2-1.08a3,3,0,0,0-.86-.84L47.55,18.28c-4.25.57-7.67,1-7.67,1-1.26.09-2.52.17-3.78.24-6.93.37-13.86.21-20.78.63-1,.06-2,.09-3.07.09h0c.56.13,1.13.28,1.68.43.76.2,1.51.42,2.26.65q3.8,1.14,7.51,2.57,1.83.71,3.64,1.49t3.79,1.78c.34-.52,1.88-.52,1.88-.52l-.19-.4a1.79,1.79,0,0,0,1,.24h.1l.39-.15a2.3,2.3,0,0,1,.66-.37,3.71,3.71,0,0,1,1.36-.12c.22-.39,1.17-.76,1.17-.76-.19-.17-.42-.36-.42-.36a8.5,8.5,0,0,1,1.63.16,1.93,1.93,0,0,0,.53-.08l0,0a.31.31,0,0,0,.08-.41,3.89,3.89,0,0,0-.86-.42c-.32-.15-.35-.35-.36-.42v0a2.86,2.86,0,0,1-1.1-.26,2.75,2.75,0,0,0,.81-.15,3.11,3.11,0,0,1,.42-.19,2.9,2.9,0,0,1,.81-.24,1.9,1.9,0,0,1,1.11.4,2.24,2.24,0,0,0,1.07-.1,5.6,5.6,0,0,1,1.61-.15,6.79,6.79,0,0,1-1,.3,1.76,1.76,0,0,1,.85.34c1,.67-.26,1.55-.91,1.86a2.61,2.61,0,0,0-1.6.28s1.27,0,1.21.37-.64.6-1.24.74a2.23,2.23,0,0,0-1.08.74,1,1,0,0,1,.51.3,3.72,3.72,0,0,0-.74.14c-.1.06-.44.81-.71,1.14a3,3,0,0,1-1.2.57,8.09,8.09,0,0,0,1.81.4,7.15,7.15,0,0,1-2,.33l2.39,1.51h0c.11.08,1.82,1.15,2.41,1.49a48.92,48.92,0,0,0,7.76,3.81c.82.27,1.63.58,2.46.84s1.85.53,2.78.74,1.72.35,2.58.48a26.94,26.94,0,0,0,4.67.28,29.49,29.49,0,0,0,4.68-.54c1.79-.33,3.57-.72,5.32-1.23l.86-.25a44.21,44.21,0,0,0,7-3c.59-.29,1.18-.59,1.76-.9l0,0h0a76.68,76.68,0,0,1-6.24,4.75l-1.36.81c-.74.42-1.51.83-2.27,1.22s-1.31.65-2,.94l-1.05.44-.06,0a44,44,0,0,1-13.42,2.65,84,84,0,0,1-15.85-.3c-9.84-1.23-15-4.54-15-4.54,9,1.58,13.74,1.3,15.9.94-3.28-2.08-6.1-4.71-9.77-7-8.77-5.48-17.06-8.91-26-8.08a9.84,9.84,0,0,1,5,3.5c-.65,2.72,2.88,8.77,8.21,13.4.92.81,1.92,1.68,3,2.54l-4-.09C19.39,46.53,26.87,49,26.87,49a36.23,36.23,0,0,1-4.46,1c.18.21,5.58,3,15.64,3.43a37.36,37.36,0,0,0,16.09-2.9l.12-.06.16-.09h0s-.14.15-.4.39a26.3,26.3,0,0,1-10.94,5.59,46.46,46.46,0,0,1-6.53,1.28l-1,.11a.45.45,0,0,0-.27.19,29.51,29.51,0,0,0-.93,10.56A45.31,45.31,0,0,0,35,74.11a0,0,0,0,1,0,0,11.33,11.33,0,0,1,.87-.78,6,6,0,0,1,2.77-1.09l-.08-.07-.08-.07a3,3,0,0,0-1.46-.56,3.14,3.14,0,0,0-.39-.06l.33-.06a8.86,8.86,0,0,1,3.46-.2h.08a2.54,2.54,0,0,1,1.56,1.13l.09.17a1.67,1.67,0,0,1,.1.23l0,.06a1.52,1.52,0,0,1,.07.24,2.33,2.33,0,0,1,0,.23s0,0,0,0,0,.16,0,.24a2,2,0,0,1-.18.84,13.62,13.62,0,0,0-1.17,3.36c0,.31-1.58,1.4-2,1.83l-.07.08h.24c.47,0,.92-.12,1.39-.17.26,0,.49,0,.68,0h0a11.88,11.88,0,0,0,1.92,2.69,6.43,6.43,0,0,1,1.85,3.18h0a.84.84,0,0,0,.35-.08h0l.15-.06.31-.15.47-.2.45-.23,0,0A13.4,13.4,0,0,1,43.55,88,5.57,5.57,0,0,0,45.87,88h0a8.84,8.84,0,0,1-2.59,5.79c-.19.21,2,2.83,3.38,4.36l.15.18.12.14.28.31.18.21c.1-.08.84-.72,1.22-1,.66-.53,1.35-1,2-1.49s2.19-1.27,2.19-1.27h0v0a3.93,3.93,0,0,0,0,.71,7.18,7.18,0,0,1,1.47-1.22,9.23,9.23,0,0,0-1.29,3.15,3.57,3.57,0,0,0,1.86,3.4c2.11,1.15,5.27,2.06,6.16,2.76a19,19,0,0,1,2.5-1.53,11.71,11.71,0,0,0-2.7,4,9.1,9.1,0,0,1,2-1.47s2,1.47,3.2,1.34,3-.06,3.65-1.67.58-1.85.9-2.37a15.19,15.19,0,0,0-2,1.48,5.59,5.59,0,0,1,2-2.82A7.9,7.9,0,0,1,73,99.47s3.79-5-.64-7.45c0,0,2.18-1.09,3.4-1.86,0,0-3.54.9-4.69,1.28a28.9,28.9,0,0,0-4-.51,22.86,22.86,0,0,1-4.94-.51C61,90.1,60,89.71,60,89.71a5.49,5.49,0,0,1,1.15-.51,4.55,4.55,0,0,0-4,2.15h0a3.55,3.55,0,0,1,.77-1.94,7.23,7.23,0,0,0-2,1.42h0c-.49-.18-1-.33-1.47-.49-.79-.24-1.58-.44-2.38-.63-.53-.13-1.06-.25-1.6-.35A58.18,58.18,0,0,1,63.9,82.92c1.58-.53,4.95-1.5,4.95-1.5a14.23,14.23,0,0,0,1.36,1.13s2.26-.54,3.34-1a28.72,28.72,0,0,1-4,2.36s2.69-.09,3.61-.26l-.42.93s1.17.92,3.94.5,4.53-1,4.53-2.44-.34-2.1.08-3.52a5.65,5.65,0,0,1-1.76,0,7.21,7.21,0,0,0,2.18-1.93,7.27,7.27,0,0,0-.58-1.8h0c2.22-.24,4.45-.43,6.67-.56a10.15,10.15,0,0,0-.9-.92,22.07,22.07,0,0,0-8.15-4.27c5.57-.74,11.21-1,16.82-1.16q4.81-.18,9.62-.23a8.85,8.85,0,0,0-2.41-1.21,31.11,31.11,0,0,1,5.73.1,31,31,0,0,0-5.14-1.77c-1.21-.35-2.43-.69-3.64-1H100c4.42.58,9.11,1.33,14.25,2.24,32.92,5.87,54.65,14.76,64.11,19.21,2.5,1.13,4.21,2,5.07,2.45.78.23,1.88.35,2.43-.44a2,2,0,0,0,.24-.44h0a.9.9,0,0,0,.23,0,29.49,29.49,0,0,0,6.08-.87c.56-.15,1.12-.33,1.68-.51a35.32,35.32,0,0,0,3.31-1.35c-.06,0-1.84-2.31-2-2.54A31.69,31.69,0,0,0,190,77.33l.83-.23a3.35,3.35,0,0,1,.87-.11,30.83,30.83,0,0,0-5.41-4c-.69-.44-1.4-.86-2.1-1.27l-.6-.36-.43-.26c-.81-.47-1.62-.93-2.44-1.36h.11c3,0,6-.13,8.93,0l3.43.15c.86.06,1.72.12,2.57.19,1.85.17,3.71.38,5.55.64l1.38.2c2.34.35,4.68.81,7,1.33l.07,0c1.27.42,2.68.61,4,.94l2.19.58c1.6.44,3.2.9,4.77,1.42,1,.33,2,.66,3,1,.26.09,1.51.73,1.7.6a17.69,17.69,0,0,1,5.5-2.73c2.42-.47,4.68-1.38,4.68-4.1C235.35,67.13,233.1,64.18,230.66,62.21ZM101.28,109.52c-1.46-1.52-2.88-2-3.74-1.18,0,0-.43-1.61-1.42-2.05a3.5,3.5,0,0,0-1.67-.35A23.27,23.27,0,0,0,89,107.7l3.78-2.44-2.15.49s-2.26,0-4.36-.16a78.21,78.21,0,0,0-7.82-.48s.61-.42,1-.63a4.86,4.86,0,0,0-2.73.86s-3.22.33-3.83,2.5a3.89,3.89,0,0,0,1.44,4.06,5.15,5.15,0,0,1,2-1.65,4.9,4.9,0,0,0-.72,2.2,27,27,0,0,0,8.22,2.21c5.48.76,5.09.35,7,1.55a16.21,16.21,0,0,1,3.16-1.78,14.33,14.33,0,0,0-1.73,3.09s2.54,2.17,4.64,2.33,3.91-.65,3.68-2.82l.76-.93-1.34.1.39-.73a4.22,4.22,0,0,0-.67-2,3.2,3.2,0,0,0,2.15.35l-.29.55a3,3,0,0,0,2-1.58l-.69-.19A5.18,5.18,0,0,0,101.28,109.52ZM87,89.14s-1.93,0-3.33.07-2.93.2-3.13,1.53a2.34,2.34,0,0,0,.8,2.47c.6.46,2.87,1.86,3.33,2.33a10.39,10.39,0,0,1,2.73-1.26,17,17,0,0,0-3.2,2.87,5.36,5.36,0,0,1,1.93-.6,8.89,8.89,0,0,0,3.39,1.26,34,34,0,0,0,3.86-.4,7.44,7.44,0,0,1,3.07-1.13,13.62,13.62,0,0,0-2.07,1.67,1.91,1.91,0,0,1,1.07.2,3.85,3.85,0,0,0,2.93.06c1.19-.47,2.39-.93,2.33-2.4a9.74,9.74,0,0,0-.93-3.2,17,17,0,0,1,2.44-1.72,14.94,14.94,0,0,0-3,.72S98,88.94,96.56,88.08a4.39,4.39,0,0,0-4.33-.33,37.49,37.49,0,0,1-3.81,1.31A12.27,12.27,0,0,0,86,90.47,4,4,0,0,1,87,89.14ZM241.38,66.83s-4.07-8.94-15.66-16.55c2.9-3.72,4-8.2,2.69-11.74s-11.15-10.39-14.82-12.29-8.75-4.69-8.75-4.69-13-7.91-23.28-12.38C169.21,3.81,147-3.36,122.77,1.75c0,0-14.52-4.76-40.76,3.35-9.18,2.52-24.77,6.67-33.51,8.12-13,2.16-26.09,2.38-36.27,3.46-5.36.57-8.94-.62-10.68,2.4C-6.12,32.37,16.74,54.84,25,58.39c-2.45,13.81.66,30.15,15.16,46.47C55.94,122.62,77.75,126,90.53,135.44c14.35,10.6,17.32,24,29.31,36.5,11,11.52,32.58,21.35,51.9,11.94,20.95-10.21,24.74-27.24,25.5-30.44.25-1.63-.7-3.29-2.8-4.3-.35-.17-1.06-.51-2-1,.83-3.34,3-13.37.86-22.12a145.09,145.09,0,0,1-10.4,13.46c-1.25-1.17-7-7-6-13.88a35.62,35.62,0,0,0,8-4.22c1.34-1,2.53-2,3.61-3,11.79-3.38,14.43-8.25,14.43-8.25a10.39,10.39,0,0,0,1.93,2.72,46,46,0,0,0,4.05-2.72,31.17,31.17,0,0,1,.19,3.93,7.42,7.42,0,0,1,1.73-.4c-.87,4.36-6,11.74-6,11.74,17.88-5.12,25.41-18.33,25.41-18.33V107a8.07,8.07,0,0,0,1.15-.32s12-3.41,17.51-15.18S244.45,68.32,241.38,66.83Zm-52.12,90.29a39.29,39.29,0,0,1-5.51,7.89,41.27,41.27,0,0,1-13.15,9.64,44.42,44.42,0,0,1-16.75,4.4l3.05-3.26a47.14,47.14,0,0,1-17.12,0c.69-.51,1.62-1.28,1.72-2.18a5.22,5.22,0,0,1-1.17-.35,26,26,0,0,1-2.82-1.2,44.12,44.12,0,0,1-9.35-6.31,67.74,67.74,0,0,1-12.72-15.05c-2.13-3.35-3.86-7-6.22-10.17a45,45,0,0,0-7-7.45,54.24,54.24,0,0,0-13.55-8.37,208.69,208.69,0,0,1-23.06-11.57q-3.12-1.86-6.11-3.92a73,73,0,0,1-11.87-10L47.42,99c.1-.08.84-.72,1.22-1,.66-.53,1.35-1,2-1.49s2.19-1.27,2.19-1.27h0v0a3.93,3.93,0,0,0,0,.71,7.18,7.18,0,0,1,1.47-1.22,9.23,9.23,0,0,0-1.29,3.15,3.57,3.57,0,0,0,1.86,3.4c2.11,1.15,5.27,2.06,6.16,2.76a19,19,0,0,1,2.5-1.53,11.71,11.71,0,0,0-2.7,4,9.1,9.1,0,0,1,2-1.47s2,1.47,3.2,1.34,3-.06,3.65-1.67.58-1.85.9-2.37a15.19,15.19,0,0,0-2,1.48,5.59,5.59,0,0,1,2-2.82A7.9,7.9,0,0,1,73,99.48s3.79-5-.64-7.45c0,0,2.18-1.09,3.4-1.86,0,0-3.54.9-4.69,1.28a28.9,28.9,0,0,0-4-.51,22.86,22.86,0,0,1-4.94-.51c-1.09-.32-2.18-.7-2.18-.7a5.49,5.49,0,0,1,1.15-.51,4.55,4.55,0,0,0-4,2.15h0a3.55,3.55,0,0,1,.77-1.94,7.23,7.23,0,0,0-2,1.42h0c-.49-.18-1-.33-1.47-.49-.79-.24-1.58-.44-2.38-.63-.53-.13-1.06-.25-1.6-.35A58.18,58.18,0,0,1,63.9,82.93c1.58-.53,4.95-1.5,4.95-1.5a14.23,14.23,0,0,0,1.36,1.13s2.26-.54,3.34-1a28.72,28.72,0,0,1-4,2.36s2.69-.09,3.61-.26l-.42.93s1.17.92,3.94.5,4.53-1,4.53-2.44-.34-2.1.08-3.52a5.65,5.65,0,0,1-1.76,0,7.21,7.21,0,0,0,2.18-1.93,7.27,7.27,0,0,0-.58-1.8h0c2.22-.24,4.45-.43,6.67-.56a10.15,10.15,0,0,0-.9-.92,22.07,22.07,0,0,0-8.15-4.27c5.57-.74,11.21-1,16.82-1.16q4.81-.18,9.62-.23a8.85,8.85,0,0,0-2.41-1.21,31.11,31.11,0,0,1,5.73.1,31,31,0,0,0-5.14-1.77c-1.21-.35-2.43-.69-3.64-1H100c4.42.58,9.11,1.33,14.25,2.24,32.92,5.87,54.65,14.76,64.11,19.21,2.5,1.13,4.21,2,5.07,2.45.78.23,1.88.35,2.43-.44a2,2,0,0,0,.24-.44h0a.9.9,0,0,0,.23,0,29.49,29.49,0,0,0,6.08-.87c.56-.15,1.12-.33,1.68-.51a35.32,35.32,0,0,0,3.31-1.35c-.06,0-1.84-2.31-2-2.54A31.69,31.69,0,0,0,190,77.34l.83-.23a3.35,3.35,0,0,1,.87-.11,30.83,30.83,0,0,0-5.41-4c-.69-.44-1.4-.86-2.1-1.27l-.6-.36-.43-.26c-.81-.47-1.62-.93-2.44-1.36,5,1.71,10,3.67,14.91,5.77l1.11.48a72.09,72.09,0,0,1,11.91,6.18A17.68,17.68,0,0,1,210.93,84l.07.07a9.86,9.86,0,0,1,3.09,4.4,11.21,11.21,0,0,1,.65,2.53,14,14,0,0,1,0,3.17l-.79,0a30.47,30.47,0,0,0-6.25.6,69.52,69.52,0,0,0-10.6,3.42c-2.53.95-4.94,2.2-7.51,3.06a28.79,28.79,0,0,1-11.33,1.52A23.67,23.67,0,0,1,167,99.15,27.29,27.29,0,0,1,160.43,93,34.48,34.48,0,0,1,157,87.54c5.05,1.82,9,3.46,11.89,4.73,2.53,1.08,4.25,1.9,5.13,2.33.79.22,1.88.31,2.42-.49,1.11-1.68-.93-3-.93-3s-25-12.21-70.85-17.25c-5.39-.59-10.37-1-15-1.29,4.52.49,9.41,1.12,14.68,1.94,8.05,1.25,15.45,2.7,22.16,4.23a17.93,17.93,0,0,0-2.18.42,15.22,15.22,0,0,0-3.93,1.67,17.13,17.13,0,0,0-5.54,5.67A32,32,0,0,0,110.48,102c-.24,6.63,1.44,13.2,3.59,19.41a106.72,106.72,0,0,0,10,21.1,76.22,76.22,0,0,0,6.77,9.44,32.32,32.32,0,0,0,9.38,8c3.9,2,8.23,2,12.47,1.36a51.06,51.06,0,0,0,8.71-2.61c6.66-2.28,13.64-4.73,20.8-4a19.91,19.91,0,0,1,7,1.85C189.48,156.76,189.44,156.77,189.26,157.12Zm-88-47.6c-1.46-1.52-2.88-2-3.74-1.18,0,0-.43-1.61-1.42-2.05a3.5,3.5,0,0,0-1.67-.35A23.27,23.27,0,0,0,89,107.7l3.78-2.44-2.15.49s-2.26,0-4.36-.16a78.21,78.21,0,0,0-7.82-.48s.61-.42,1-.63a4.86,4.86,0,0,0-2.73.86s-3.22.33-3.83,2.5a3.89,3.89,0,0,0,1.44,4.06,5.15,5.15,0,0,1,2-1.65,4.9,4.9,0,0,0-.72,2.2,27,27,0,0,0,8.22,2.21c5.48.76,5.09.35,7,1.55a16.21,16.21,0,0,1,3.16-1.78,14.33,14.33,0,0,0-1.73,3.09s2.54,2.17,4.64,2.33,3.91-.65,3.68-2.82l.76-.93-1.34.1.39-.73a4.22,4.22,0,0,0-.67-2,3.2,3.2,0,0,0,2.15.35l-.29.55a3,3,0,0,0,2-1.58l-.69-.19A5.18,5.18,0,0,0,101.28,109.52ZM81.37,93.21c.6.46,2.87,1.86,3.33,2.33a10.39,10.39,0,0,1,2.73-1.26,17,17,0,0,0-3.2,2.87,5.36,5.36,0,0,1,1.93-.6,8.89,8.89,0,0,0,3.39,1.26,34,34,0,0,0,3.86-.4,7.44,7.44,0,0,1,3.07-1.13,13.62,13.62,0,0,0-2.07,1.67,1.91,1.91,0,0,1,1.07.2,3.85,3.85,0,0,0,2.93.06c1.19-.47,2.39-.93,2.33-2.4a9.74,9.74,0,0,0-.93-3.2,17,17,0,0,1,2.44-1.72,14.94,14.94,0,0,0-3,.72S98,88.94,96.56,88.08a4.39,4.39,0,0,0-4.33-.33,37.49,37.49,0,0,1-3.81,1.31A12.27,12.27,0,0,0,86,90.47a4,4,0,0,1,1-1.33s-1.93,0-3.33.07-2.93.2-3.13,1.53A2.34,2.34,0,0,0,81.37,93.21Z"/><path class="cls-1" d="M214.74,91a11.26,11.26,0,0,0-.65-2.53,9.86,9.86,0,0,0-3.09-4.4l-.07-.07a17.68,17.68,0,0,0-2.29-1.82A72.2,72.2,0,0,0,196.74,76l-1.11-.48c-4.89-2.11-9.88-4.07-14.91-5.77.82.44,1.63.9,2.44,1.36l.43.26.6.36c.7.41,1.41.83,2.1,1.27a30.83,30.83,0,0,1,5.41,4,3.35,3.35,0,0,0-.87.11l-.83.23a31.57,31.57,0,0,1,5.36,4.82c.21.23,2,2.54,2,2.54A35.43,35.43,0,0,1,194.09,86c-.56.19-1.11.36-1.68.51a29.49,29.49,0,0,1-6.08.88.9.9,0,0,1-.23,0h0a2,2,0,0,1-.24.44c-.55.8-1.64.67-2.43.44-.87-.45-2.57-1.31-5.07-2.45-9.46-4.45-31.19-13.34-64.11-19.21-5.14-.92-9.83-1.66-14.25-2.24h-.31q1.82.48,3.64,1a31,31,0,0,1,5.14,1.77,30.93,30.93,0,0,0-5.73-.1,8.85,8.85,0,0,1,2.41,1.21q-4.81.05-9.63.23c-5.61.19-11.24.42-16.82,1.16a22.07,22.07,0,0,1,8.15,4.27,10.15,10.15,0,0,1,.9.92c-2.22.13-4.45.33-6.67.56h0a7.22,7.22,0,0,1,.58,1.8,7.21,7.21,0,0,1-2.18,1.93,5.65,5.65,0,0,0,1.76,0c-.42,1.43-.08,2.1-.08,3.52s-1.77,2-4.53,2.44-3.94-.5-3.94-.5l.42-.93c-.92.17-3.61.26-3.61.26a28.72,28.72,0,0,0,4-2.36c-1.08.42-3.34,1-3.34,1a14.41,14.41,0,0,1-1.36-1.13s-3.36,1-4.95,1.5a58.14,58.14,0,0,0-13.53,6.42c.54.1,1.08.23,1.6.35.8.19,1.6.4,2.38.63.49.15,1,.31,1.47.49h0a7.24,7.24,0,0,1,2-1.42,3.55,3.55,0,0,0-.77,1.94h0a4.55,4.55,0,0,1,4-2.15,5.46,5.46,0,0,0-1.15.51s1.09.38,2.18.7a22.8,22.8,0,0,0,4.94.51,28.9,28.9,0,0,1,4,.51c1.15-.38,4.69-1.28,4.69-1.28-1.22.76-3.4,1.86-3.4,1.86,4.43,2.44.64,7.45.64,7.45a7.9,7.9,0,0,0-2.38,1.41,5.59,5.59,0,0,0-2,2.82,15.19,15.19,0,0,1,2-1.48c-.33.51-.19.77-.9,2.37s-2.44,1.54-3.65,1.67-3.2-1.34-3.2-1.34a9.1,9.1,0,0,0-2,1.47,11.73,11.73,0,0,1,2.7-4,19,19,0,0,0-2.5,1.53c-.9-.7-4.05-1.6-6.16-2.76a3.57,3.57,0,0,1-1.86-3.4,9.22,9.22,0,0,1,1.29-3.15,7.18,7.18,0,0,0-1.47,1.22,3.93,3.93,0,0,1,0-.71v0h0s-1.53.81-2.19,1.27-1.39,1-2,1.49c-.38.31-1.13,1-1.22,1l.24.26a73,73,0,0,0,11.87,10q3,2.07,6.11,3.92a208.61,208.61,0,0,0,23.06,11.57,54.21,54.21,0,0,1,13.55,8.37,45.06,45.06,0,0,1,7,7.45c2.36,3.2,4.08,6.81,6.22,10.17a67.74,67.74,0,0,0,12.72,15.05,44.16,44.16,0,0,0,9.35,6.31,26,26,0,0,0,2.82,1.2,5.28,5.28,0,0,0,1.17.35c-.1.9-1,1.67-1.72,2.18a47.19,47.19,0,0,0,17.12,0l-3.05,3.26a44.44,44.44,0,0,0,16.75-4.4A41.26,41.26,0,0,0,183.75,165a39.33,39.33,0,0,0,5.51-7.89c.18-.35.22-.36-.1-.51a19.89,19.89,0,0,0-7-1.85c-7.16-.77-14.13,1.68-20.8,4a51,51,0,0,1-8.71,2.61c-4.23.64-8.56.65-12.47-1.36a32.34,32.34,0,0,1-9.37-8A76.25,76.25,0,0,1,124,142.5a106.64,106.64,0,0,1-10-21.1c-2.15-6.21-3.83-12.79-3.59-19.42a32,32,0,0,1,4.37-15.52,17.13,17.13,0,0,1,5.54-5.67,15.19,15.19,0,0,1,3.93-1.67,17.93,17.93,0,0,1,2.18-.42c-6.71-1.53-14.11-3-22.16-4.23-5.28-.82-10.16-1.45-14.68-1.94,4.6.28,9.59.7,15,1.29,45.84,5,70.85,17.25,70.85,17.25s2,1.34.93,3c-.54.81-1.63.71-2.42.49-.87-.43-2.6-1.25-5.13-2.33C166,91,162,89.36,157,87.54A34.44,34.44,0,0,0,160.44,93,27.31,27.31,0,0,0,167,99.15a23.66,23.66,0,0,0,11.21,3.61,28.81,28.81,0,0,0,11.33-1.52c2.57-.86,5-2.11,7.51-3.06a69.52,69.52,0,0,1,10.6-3.42,30.54,30.54,0,0,1,6.25-.6l.79,0A14.24,14.24,0,0,0,214.74,91ZM103.5,112.82a3,3,0,0,1-2,1.58l.29-.55a3.21,3.21,0,0,1-2.15-.35,4.22,4.22,0,0,1,.67,2l-.39.73,1.34-.1-.76.93c.22,2.17-1.58,3-3.68,2.82s-4.64-2.33-4.64-2.33a14.38,14.38,0,0,1,1.73-3.09,16.27,16.27,0,0,0-3.16,1.78c-1.93-1.19-1.53-.79-7-1.55a27,27,0,0,1-8.22-2.21,4.91,4.91,0,0,1,.72-2.2,5.16,5.16,0,0,0-2,1.65,3.89,3.89,0,0,1-1.44-4.06c.62-2.17,3.83-2.5,3.83-2.5a4.85,4.85,0,0,1,2.73-.86c-.36.22-1,.63-1,.63a78.23,78.23,0,0,1,7.82.48c2.1.17,4.36.16,4.36.16l2.15-.49L89,107.69a23.3,23.3,0,0,1,5.46-1.75,3.52,3.52,0,0,1,1.67.35c1,.44,1.42,2.05,1.42,2.05.86-.84,2.28-.34,3.74,1.18a5.16,5.16,0,0,1,1.52,3.11ZM92.23,87.74a4.39,4.39,0,0,1,4.33.33c1.4.86,2.73,3.53,2.73,3.53a15.09,15.09,0,0,1,3-.72,16.83,16.83,0,0,0-2.44,1.72,9.74,9.74,0,0,1,.93,3.2c.06,1.47-1.13,1.93-2.33,2.4a3.84,3.84,0,0,1-2.93-.06,1.9,1.9,0,0,0-1.07-.2,13.62,13.62,0,0,1,2.07-1.67,7.45,7.45,0,0,0-3.07,1.13,34,34,0,0,1-3.86.4,8.89,8.89,0,0,1-3.39-1.26,5.36,5.36,0,0,0-1.93.6,17,17,0,0,1,3.2-2.87,10.39,10.39,0,0,0-2.73,1.26c-.47-.47-2.74-1.86-3.33-2.33a2.33,2.33,0,0,1-.8-2.47c.2-1.33,1.73-1.47,3.13-1.53S87,89.14,87,89.14a4,4,0,0,0-1,1.33,12.27,12.27,0,0,1,2.38-1.41A37.48,37.48,0,0,0,92.23,87.74Z"/><path class="cls-2" d="M230.66,62.21s-3.53,4.37-5.28,3,.92-3.14.35-6.63-12-15.25-26.46-23.92c0,0,6.69,2.76,13.15,6.19,7.9,1.3,9.75-.76,10.17-1.61a12,12,0,0,0-.87-1.29,6.25,6.25,0,0,0-1.17-.62c-.91-.35-1.77-.49-2.38-.79a23.57,23.57,0,0,1-1.85-2.08,2.09,2.09,0,0,0,.24,1.34,5.63,5.63,0,0,0-2.05-1.14,9.18,9.18,0,0,1-2.47-.83c-.3-.23-.9-.76-.9-.76a3.11,3.11,0,0,0,.17.83,1.34,1.34,0,0,1-1.18-1.13,1.4,1.4,0,0,1,.65-1.49,1.67,1.67,0,0,1,0-.68,10,10,0,0,0,1.34,1.26,3.11,3.11,0,0,0-.18-1.74L211.6,30c-.33-.18-.66-.35-1-.49s-15.15-8.56-22.21-12.1a8.82,8.82,0,0,1-2-.42s-1.18-.55-1.38-1.11a.88.88,0,0,0,.09.61,7.76,7.76,0,0,1,1.12,1.87s-1.18-.7-2.14-1.2a25.17,25.17,0,0,1-3.64-1.7A2.37,2.37,0,0,1,180,15a.81.81,0,0,1-.1-.14,1.59,1.59,0,0,1-.21-.44.89.89,0,0,1,0-.17.29.29,0,0,1,0-.08,1,1,0,0,1,0-.19.91.91,0,0,1,0-.13l0,0,.05,0,.07.06a3.89,3.89,0,0,0,1.4.91l.13,0,0-.06-.05-.06-.13-.15a6.35,6.35,0,0,1-1-1.39,84.36,84.36,0,0,0-22-7.72c-13.41-2.65-22.42-.42-22.42-.42A34.68,34.68,0,0,1,143.9,7.2a4.51,4.51,0,0,0,1.22-.59,2.86,2.86,0,0,1,1.65-.68c.34,0,1.81,1.75,1.81,1.75a23.73,23.73,0,0,0-.45-2.5,10.19,10.19,0,0,1,2,0c.81.19,1.48.46,1.76.46s.4-.34.4-.34.51.33.51.74c0,0,1.14.79,1.14,1.54a8.85,8.85,0,0,0,0,2.16s-.29.17-.74-.57a2.73,2.73,0,0,1-1.48.63,2.46,2.46,0,0,0-.9.18c2.54,1.13,5.42,2.53,8.66,4.26l.64.46a5.26,5.26,0,0,1,.44-1.24,2.05,2.05,0,0,1,.4.47,3.68,3.68,0,0,0,0-1,4,4,0,0,1,1.6-.81,3.15,3.15,0,0,0,1.21-.2,2,2,0,0,0-.08-1.16,3.38,3.38,0,0,1,1.42,1.56,4.79,4.79,0,0,0,.07-1.08,6.3,6.3,0,0,1,2.15,0,3,3,0,0,1,1.71.88c.2.33.76,1.46.45,1.7s-.89.34-1.06.61-.24.5-.47.67a1.34,1.34,0,0,1-.54.21,3.57,3.57,0,0,0,.17,1.4,1,1,0,0,1-.72-.63,1.12,1.12,0,0,1-.23.9,2,2,0,0,1-.9.7s-.83-.79-.9-1.09c0,0,.09,1.86-.23,1.51,0,0-1.75-1.54-2.1-1.73a6.32,6.32,0,0,1-1,.08,3.1,3.1,0,0,1-1.54-.77s0,.4.53.81a4,4,0,0,1-.71-.17,1.78,1.78,0,0,1-.84.48s.54.6.77.83a3.34,3.34,0,0,1-1.54-.69,4.28,4.28,0,0,1-1.28-.17,3.23,3.23,0,0,0-1.68,0,2.09,2.09,0,0,1-1.14-.07,10.89,10.89,0,0,1-1.64-.77,2.34,2.34,0,0,0,.4.71s-.1.44-1.08.17-1-.57-1.51-.88-.84-.74-.74-1.1a1.48,1.48,0,0,1,.4-.64,3.38,3.38,0,0,0,.83.51,8.35,8.35,0,0,1-1-1.54l.71.13s.17-.64,1.58-.94c.47-.1.87-.17,1.19-.22a156.77,156.77,0,0,0-15.58-4,2.56,2.56,0,0,0-.26.36,4.52,4.52,0,0,0-.24.46,3.65,3.65,0,0,1-.77,1.26s-2.91-.91-3.85-1.38a20.2,20.2,0,0,0,2.5,1.76s-.88,1.47-4,1.12a6.17,6.17,0,0,1-2.55.5,5.54,5.54,0,0,1-3.15-1.42,1.85,1.85,0,0,1,.89-2.47s1.63,1,2.44,1.45c0,0-1.44-1.79-1.33-2.37a10.52,10.52,0,0,1,1.13-.79c-.72-.1-1.44-.19-2.17-.26a104.32,104.32,0,0,0-17.72-.56c.42.6.33,1.17.67,1.77A.74.74,0,0,1,109,8.62a16.51,16.51,0,0,0-2.27-1.14A10,10,0,0,1,108,9.06a7.92,7.92,0,0,1-2.86.55,8.69,8.69,0,0,0-3,1.1,6.16,6.16,0,0,1-2-1.57l-.31-.27-.08-.07,0,0-.06,0a.68.68,0,0,1,.08.2,0,0,0,0,0,0,0,0,0,0,0,0,0,0l.13.32c.09.21.19.42.3.63a19,19,0,0,0,1.08,1.76l0,0,.43.69a2.18,2.18,0,0,1,.15.22l0,0,0,.08.06.08,0,0a.19.19,0,0,1,0,.06c-.16-.2-.66-.3-.9-.38h0a7.21,7.21,0,0,1-1.19-.62h0c-.17-.12-.68-.58-.89-.51l-.13,0-.08,0-.16,0-.2.06-.21,0-.3.06a4.87,4.87,0,0,1-.54.06h0a6.63,6.63,0,0,1-.72,0,7.23,7.23,0,0,1-4-2.28,1.69,1.69,0,0,1-.53-1.22c-1.15.27-2.27.56-3.37.85-1.64.38-10.56,2.38-19.68,4.42a10.45,10.45,0,0,1-.21,1.67,1.72,1.72,0,0,0,.51,1.11,9.16,9.16,0,0,1-2.89-.61,8,8,0,0,0,2,1.6,1.79,1.79,0,0,1-.9,1.11,4.05,4.05,0,0,1-2.07.11c-.86-.06-1.6.35-2.7.4a5.9,5.9,0,0,1-2.43-.62,3,3,0,0,0,2.1-.7c-1.54-.17-2-.74-2.2-1.08a3.08,3.08,0,0,0-.85-.84L47.55,18.28c-4.24.57-7.67,1-7.67,1-.21.26-.49.68-.12.81a7.37,7.37,0,0,0,1.58.29,16.28,16.28,0,0,0,1.75,0S39.7,22,39.29,22.07a3,3,0,0,0-.94.65l0,0-.06.06,0,0-.06.06a3.06,3.06,0,0,1,.81-.24,1.85,1.85,0,0,1,1.11.4,2.24,2.24,0,0,0,1.07-.1,5.38,5.38,0,0,1,1.61-.15,7.46,7.46,0,0,1-1,.29,1.76,1.76,0,0,1,.86.34c1,.67-.26,1.55-.91,1.86a2.62,2.62,0,0,0-1.6.28s1.27,0,1.21.37-.64.6-1.24.74a2.24,2.24,0,0,0-1.08.74,1,1,0,0,1,.51.3,3.71,3.71,0,0,0-.74.14c-.1.06-.44.81-.71,1.14a3,3,0,0,1-1.2.57,8.08,8.08,0,0,0,1.81.4,7.08,7.08,0,0,1-2,.33l2.39,1.52h0l1.33.31a93.53,93.53,0,0,0,15.4,2.64,40.77,40.77,0,0,0,9.37-.83c1.89-.33,3.76-.71,5.61-1.17A14.16,14.16,0,0,1,68,35.28l.15,0c6.25-1.54,12.49-3.09,18.76-4.57a56.56,56.56,0,0,1,11.9-1.38,3.39,3.39,0,0,1,1.78-.56,10.84,10.84,0,0,1,3.78.63q2.41.1,4.82.28a5.94,5.94,0,0,0-2.59-2.45c1.44,0,2.88,0,4.32.09A156.83,156.83,0,0,1,135,29.71c2,.38,3.91.81,5.86,1.27a.44.44,0,0,0,.24-.25c.1-.22.05-.71.5-.81a2.88,2.88,0,0,1,1.46.4c.2.1,1.34.81,1.7,1,.21.1.3.44.33.74,1.07.3,2.13.61,3.2.93h0l-.06,0-.09-.06-.07-.06-.18-.13h0l-.24-.17-.06,0-.2-.13-.09-.06-.19-.12-.09-.06-.27-.17c3.29-2.38,7.91-1.86,7.91-1.86a11.61,11.61,0,0,1,1.84.4,4.22,4.22,0,0,1,1.84-.44c.79.08,2.21.82,2.34,1.27a5.91,5.91,0,0,1-.52,2.41,5.63,5.63,0,0,1-2.48,1.7l-.1-.17-.08-.11a3.28,3.28,0,0,0-.85-.87l0,.13,0,.13s0,.08,0,.12a.72.72,0,0,1,0,.11c0,.15.07.32.11.49s0,.29.06.41-.17.09-.41.26a59.13,59.13,0,0,1,13.05,7.84,48.72,48.72,0,0,0,7.48,5.1l.49.23c.44.19.9.35,1.35.5a11.92,11.92,0,0,0,8.06-.35h0l.15-.12a6,6,0,0,0,.48-.52c.14-.18.27-.36.4-.55h0a3.28,3.28,0,0,0,.19-.35,8.1,8.1,0,0,0,.63-5.14c0-.08,0-.15,0-.24s-.08-.42-.13-.63a17.44,17.44,0,0,0-.51-1.76c-.19-.54-.38-1-.56-1.43l-.17-.37-.08-.17-.14-.29s0-.1-.08-.14l-.06-.12-.07-.12,0-.08a25.2,25.2,0,0,1,1.87,1.74A28.66,28.66,0,0,1,195,46.68c2.55,5.1,3.49,8.46,3.49,9.39s-2.15.68-3.76.54-9.8.68-12.62,2h0a25.9,25.9,0,0,1,5.49-.75c5-.06,12,1.38,14.13,3.25l.09,0s1.51,1.11,1.17,2.47c-.29,1.13-1.4,2-3.34,2.14a4.58,4.58,0,0,0,.7,2.46,17.17,17.17,0,0,0,2.38,2.65c2.34.35,4.67.81,7,1.32l.07,0c1.27.42,2.68.61,4,.95l2.19.58c1.6.44,3.19.9,4.77,1.42,1,.33,2,.66,3,1,.26.09,1.52.73,1.7.6a17.66,17.66,0,0,1,5.5-2.73c2.42-.47,4.69-1.38,4.69-4.1C235.35,67.13,233.1,64.18,230.66,62.21Zm-169-37.65a2,2,0,0,1,.89,1.61c0,1.14-.23,1.64,0,2.42s-.19,1.32-1.28,2a8.76,8.76,0,0,1-2.2.14,6.08,6.08,0,0,0,1.19.46,3.44,3.44,0,0,1-2.88.59,6.91,6.91,0,0,1-3.61,1c-1.55-.23-1.91-.87-1.91-.87s1.85-.33,3.17-.51a18.25,18.25,0,0,1-3.19-1,4,4,0,0,1,.75-1.63c.5-.51.38-.63.38-.63s-2-.47-2.71-.74a26.64,26.64,0,0,0,3.06-.63s-.28-.56.64-1.29a17.87,17.87,0,0,0,2.05-1.88c.37-.41,2.15-.45,3.15-.18a4.07,4.07,0,0,0,1.55.28c.55,0,2.88-.23,2.88-.23A3.36,3.36,0,0,1,61.67,24.56Zm33-5.54c-.14,1.2-1.68,2.27-2.1,2.54a3.34,3.34,0,0,0-1.41,1.6,2,2,0,0,1-1.56,1.33c-.5,0-1.18.77-1.18.77a4.14,4.14,0,0,0,1.86-.17l-1.36,1.09a4.94,4.94,0,0,1-2.28.59c-.51,0-1,0-2.56,0s-3.34-.19-3.87-1.17-.72-1-.75-1a10.7,10.7,0,0,1-3.38.48,13.52,13.52,0,0,0,4.07-3,12.07,12.07,0,0,1-2.52.7,2.17,2.17,0,0,1-.18-1.34,1.46,1.46,0,0,1,.69-1,2.27,2.27,0,0,1,.5-1A5.32,5.32,0,0,1,81.51,18a5.77,5.77,0,0,0,2.56-.91,8.44,8.44,0,0,1,3.74-1.19,5.32,5.32,0,0,1,1.47.27c.59,0,1.91-.27,1.91-.27a15.62,15.62,0,0,1-2.83,1.87,13.47,13.47,0,0,0,3.75-1C94.16,16.86,94.8,17.82,94.66,19Zm26.12-1.77c-.09.65-.56,2.33-1.44,2.71s-1.13.44-1.13.44v1.94a21.4,21.4,0,0,1-1.6-1.56,8,8,0,0,1-1.29-.12c-.93-.14-2.05,1.44-3.78,1.31,0,0-2.84-.61-3.3-1.77a3.19,3.19,0,0,1-.1-2.47,7.82,7.82,0,0,0,1.68,1.63,8.1,8.1,0,0,1-.65-2.42,1.89,1.89,0,0,0,.65-.84c.1-.42,1.17-1.07,1.82-1.21a2.4,2.4,0,0,1,1.29.14,13.81,13.81,0,0,0,1.32,2.39,25.72,25.72,0,0,1,0-4.62,18.29,18.29,0,0,0,1.08,2.08s.78-.08,1.9-.27a3,3,0,0,1,2.75.56A2.46,2.46,0,0,1,120.78,17.25Zm25.06,2a7.05,7.05,0,0,1-1.67,1,2.48,2.48,0,0,0,.55,1.22,4.3,4.3,0,0,1-1.54-.48,4.32,4.32,0,0,0-.69,1,6.61,6.61,0,0,1-1.54,1.87,9.51,9.51,0,0,1-1.69.84,10.49,10.49,0,0,0,1.86,2.05,16.74,16.74,0,0,1-4.21-2.52,2.44,2.44,0,0,0,.18,1.32,5.13,5.13,0,0,1-3,.26A10,10,0,0,1,131,24.26a17.26,17.26,0,0,0,2.44.29s-2-1-2.38-2a2,2,0,0,1,.85-2.64,4.47,4.47,0,0,1,2.05-.44,29.89,29.89,0,0,0,4.19,1.61,11.53,11.53,0,0,1-2.53-2.17,5.32,5.32,0,0,0,1.84-.22c.4-.26.7-.92,1.47-1.17a8,8,0,0,1,1.58-.33,5.1,5.1,0,0,1-.92-.63,14,14,0,0,0,2,.4s1.32.08,1.9.15a10.12,10.12,0,0,1,2.61,0C147,17.43,146.59,18.64,145.84,19.27Zm19.06,4.59s-.93-.23-1.29-.35a7.24,7.24,0,0,1,.75,1.33,5.81,5.81,0,0,1-1.49.7,1.82,1.82,0,0,0-1.18.72,2.62,2.62,0,0,1-2.14.76c-.85-.12-2.56-.63-2.71-.66A8,8,0,0,1,158,27.77a9.23,9.23,0,0,1-2.58.72,11,11,0,0,1-2.09-.18c-.63-.18-1.2-.49-1.24-.89a1.38,1.38,0,0,1,.31-.85,14.9,14.9,0,0,0,2.05.63s-1.91-1.78-2.59-2.27a17.4,17.4,0,0,1,2.14.49,3.51,3.51,0,0,0-.4-1c-.31-.53.27-1.06.54-1.2s1.51-.62,1.83-.84a12.32,12.32,0,0,0-1.7-1.16,19.66,19.66,0,0,1,2.63.44,3.63,3.63,0,0,0,1.47-.26,2.48,2.48,0,0,1,1.65-.22c.62.09.7.26,1.11.31a4.14,4.14,0,0,0,.81,0,2.2,2.2,0,0,0-.93-.63,6.35,6.35,0,0,1,2.09.63,4,4,0,0,1,1.82.85C165.62,23,164.9,23.86,164.9,23.86Zm9.75,8.07a9.81,9.81,0,0,1,1.48,1.64,4.19,4.19,0,0,0-.8.85A3.23,3.23,0,0,1,174,35.79a2.3,2.3,0,0,1-1.29.85,10.08,10.08,0,0,1-1.56-.13,5.11,5.11,0,0,1-3.56-1.33s1.91.26,2.4.26A14,14,0,0,1,168,33.66s.49-.31.45-.76a1.38,1.38,0,0,1,.27-1.33,17.94,17.94,0,0,0,2.49.67s-1-1-2-1.87a3.25,3.25,0,0,1,1.38.24,3,3,0,0,0,1-.64,2.74,2.74,0,0,1,2.89.1A7.21,7.21,0,0,1,176,31.65a4.41,4.41,0,0,1,1.56,1.51A9.07,9.07,0,0,0,174.65,31.92Zm7.45-9.14a1.31,1.31,0,0,1-1.25,1.2c-.76.08-1.2-.22-1.47.13a2.08,2.08,0,0,1-1.07.8s-2.58-1.6-3.7-2.18a14,14,0,0,1,1.16,1.7,6.73,6.73,0,0,1-2.63-.31c-1.07-.44-1.79-.82-2.54-1.15A5.09,5.09,0,0,1,169,21.58a16.86,16.86,0,0,0,1.91.76,6.93,6.93,0,0,1-1.15-1.65A2.79,2.79,0,0,0,171,20a3.74,3.74,0,0,1,2.32-.8h.18a10.52,10.52,0,0,1,4,1.87,16.22,16.22,0,0,0-1.56-1.87,12.49,12.49,0,0,0,2-.13,3.08,3.08,0,0,1,2,.08,2.44,2.44,0,0,1,1,1,10.17,10.17,0,0,0-1.24-.44s0,.53,1.07,1.29S182.14,22.16,182.09,22.79ZM191.32,34a6.22,6.22,0,0,0-2-.44,1.32,1.32,0,0,1-1.41.42,5.61,5.61,0,0,1-2-1s.89,0,1.6,0a2.2,2.2,0,0,0-1.15-.53,4.1,4.1,0,0,1-1.95-.79.76.76,0,0,0,.25.79,1.21,1.21,0,0,1-1.56-1c-.22-1.33-1-1.24-.45-2.22a2,2,0,0,1,1.67-1s-1-.58-1.58-.94a17.23,17.23,0,0,1,3.87,1.6,2.1,2.1,0,0,0-.53-1,3,3,0,0,1,2.45.54c1.29.89,1.34,1.69,2.32,2.36a1.15,1.15,0,0,1-.05,2S191.13,33.61,191.32,34Zm7.22-6-2-1.72s.71,1.68.82,2a3.9,3.9,0,0,1-2.11-.53c-.74-.58-1.81-1.26-1.54-1.26,0,0,.34,0,.61.06a3.45,3.45,0,0,0-2.3-1.11,3,3,0,0,1-1.9-.31,4.64,4.64,0,0,1-1.44-1,3,3,0,0,1-.66-1.41,11.15,11.15,0,0,0,1.48.89,5.06,5.06,0,0,1-.88-2,2.79,2.79,0,0,1,1.41.17c.79.3,1,.06,1,.06a3.23,3.23,0,0,1-.47-.9,10.37,10.37,0,0,0,1.43,1,3.67,3.67,0,0,1,2.18,0,8,8,0,0,1,2.17,1.64,9.32,9.32,0,0,0,.87.72,4.48,4.48,0,0,1-.69-1.27c.08,0,.7.45,1,.59a2.62,2.62,0,0,1,1,1.13c.1.38-.52,1-.52,1s.81,1,.81,1.47A1.15,1.15,0,0,1,198.54,27.93Zm1.54,2.26a3,3,0,0,1,1.08-.12.94.94,0,0,0-.25-.65,15,15,0,0,1,2.39,1.77l-.2-.71a5.21,5.21,0,0,1,1.91.91,6.17,6.17,0,0,1,1.08,1.53c.17.31.65,1.31.45,1.61a.65.65,0,0,1-.5.31s-1.81-1.08-2.29-1.31c0,0,.91,1.41,1,1.74,0,0-1.56-.23-2-.78a11,11,0,0,1-2.39-.86,2.52,2.52,0,0,1-1.13-1.44l1.52.71s-1.36-1.64-1.79-2A2.6,2.6,0,0,1,200.08,30.19Z"/><path d="M202.21,62.68c-1.24,2.55-7.81-.88-14.86-1.51s-16.52,2.1-16.52,2.1l.23-.18a14.35,14.35,0,0,1,2.16-1.28c.62-.31,1.25-.61,1.89-.88a42.06,42.06,0,0,1,7-2.3h0a25.9,25.9,0,0,1,5.49-.75c5-.06,12,1.38,14.13,3.25C202.25,61.62,202.47,62.14,202.21,62.68Z"/><path class="cls-3" d="M199.62,65.78a4.58,4.58,0,0,0,.7,2.46,17.17,17.17,0,0,0,2.38,2.65l-1.38-.2c-1.84-.26-3.7-.47-5.55-.64-.85-.08-1.71-.14-2.57-.19l-3.43-.15c-3-.08-6,0-8.93,0h-.15c-1-1.34-4.72-6.67-9.85-6.48,0,0,9.48-2.73,16.52-2.1s13.62,4.06,14.86,1.51c.26-.54,0-1.06-.52-1.55l.09,0s1.51,1.11,1.17,2.47C202.67,64.77,201.55,65.66,199.62,65.78Z"/><path class="cls-2" d="M197.4,84.69A35.43,35.43,0,0,1,194.09,86c-.56.19-1.11.36-1.68.51a29.49,29.49,0,0,1-6.08.88.9.9,0,0,1-.23,0,1.17,1.17,0,0,0,0-.15,2.2,2.2,0,0,0,0-.27,2.74,2.74,0,0,0-1.2-2.15l0,0-.12-.06-.05,0c-.85-.4-1.71-.79-2.58-1.18q-2.25-1-4.53-1.94l-.88-.35-.65-.26q-5.24-2.08-10.62-3.8-3.24-1-6.5-2l-1-.3q-5.49-1.58-12-3.17c-2.86-2.69-5.69-5.39-8.71-7.86,20.13,5.36,33.91,11.28,40.92,14.66,2.49,1.16,4.19,2,5.05,2.5.78.24,1.87.37,2.43-.42,1.16-1.64-.83-3.05-.83-3.05S167.15,68.27,134,61.45c-3.27-2.32-6.73-4.26-10.12-6.36a20.52,20.52,0,0,1-3.39-2.43,3.07,3.07,0,0,1-1.13-1.82,2.15,2.15,0,0,1,0-.42v0a1.82,1.82,0,0,1,0-.27l0-.08a.23.23,0,0,0,0-.06c0-.07.06-.16.08-.23l.06-.13A5,5,0,0,1,121,47.84l.24-.21.17-.14.21-.18.23-.19h0l.08-.07,0,0h0l.06-.06,0,0h0l.21,0,.3-.08c1.42-.35,2.92-.72,4.44-1,.51-.08,1-.15,1.53-.2.55,1.78,3,4.41,3,4.41a9.44,9.44,0,0,1-2.63-.33c2.14,2.88,8.07,6.5,12.68,7.4a42.71,42.71,0,0,0,8.8.74c-.65.33-1.73.74-1.73.74A19.54,19.54,0,0,1,153,59c.32.06.67.15,1,.25,1.64.42,3.66,1.1,4.85,1.51l.38.13h0l1.07.72a59.8,59.8,0,0,1,5.89,4.5q.81.7,1.6,1.42c.85.78,1.61,1.62,2.45,2.4-.07-.06-.08-.38-.11-.48a5.21,5.21,0,0,0-.19-.54c-.15-.37-.29-.76-.45-1.12-.31-.74-.67-1.47-1-2.18a34.81,34.81,0,0,0-2.62-4.09c-.54-.73-1.11-1.45-1.7-2.15-.43-.5-.88-1-1.33-1.48s-.8-1.11-1.34-1.29h0c.44,0,.85,0,1.24.1l.38,0,.5.08a9.83,9.83,0,0,1,1.22.3l.42.14.4.15c.26.1.51.22.75.34l.35.18.33.19.31.2.29.21.17.13.33.26c.13.1.24.21.35.32a1.61,1.61,0,0,1,.19.18,8.29,8.29,0,0,1,1.19,1.53l.16.29a8,8,0,0,1,.69,1.62.65.65,0,0,1,0,.15c.05.17.07.28.07.28,5.13-.19,8.86,5.14,9.85,6.48h0c.82.44,1.63.9,2.44,1.36l.43.26.6.36c.7.41,1.41.83,2.1,1.27a30.83,30.83,0,0,1,5.41,4,3.35,3.35,0,0,0-.87.11l-.83.23a31.57,31.57,0,0,1,5.36,4.82C195.56,82.39,197.34,84.69,197.4,84.69Z"/><path class="cls-4" d="M175.05,145l-3.25-2.11-.42-4.67S176,141.21,175.05,145Z"/><path class="cls-4" d="M164.08,134.74s-2.59,10.07-14.65,16.55c0,0-9.19-3.12-14.22-14.66-4.06-9.34-.19-26.82-5.63-36.71a17,17,0,0,0-10-8.1s4-2.28,12.27.4c13.65,4.41,15.14,22.25,15.35,25.92.43,7.2,1.67,16.51,6.4,19,0,0-2.79-3.86-2.87-13-.25-27.1-9.63-30.93-9.63-30.93s11.45,1.88,14.53,11.57S153.76,129.39,164.08,134.74Z"/><path class="cls-4" d="M224,80.17c-.4,3.62-6,8.86-6,8.86a70.85,70.85,0,0,0-3.82-6.84s.81-2-2.22-4.64-11.28-2.61-11.28-2.61a9.43,9.43,0,0,1,5-1C213.08,74.6,224,80.17,224,80.17Z"/><path class="cls-1" d="M39.27,24.34a.31.31,0,0,1-.08.41l0,0a1.86,1.86,0,0,1-.53.08A8.5,8.5,0,0,0,37,24.69s.23.19.42.36c0,0-1,.38-1.17.76a3.71,3.71,0,0,0-1.36.12,2.35,2.35,0,0,0-.65.38l-.39.15h-.1a1.8,1.8,0,0,1-1-.24l.19.4s-1.54,0-1.88.52q-1.87-.94-3.79-1.78c-1.2-.52-2.42-1-3.64-1.49-2.47-1-5-1.81-7.51-2.57-.75-.23-1.5-.44-2.26-.65-.56-.15-1.12-.31-1.68-.43h0c1,0,2,0,3.07-.09,6.92-.42,13.85-.26,20.78-.63,1.26-.07,2.52-.15,3.78-.24-.21.26-.49.68-.12.81a7.37,7.37,0,0,0,1.58.29,16.28,16.28,0,0,0,1.75,0S39.71,22,39.3,22.07a3,3,0,0,0-.94.65l0,0-.06.06,0,0-.07.06a3.94,3.94,0,0,0-.42.19,2.92,2.92,0,0,1-.81.14,3,3,0,0,0,1.1.26v0a.53.53,0,0,0,.36.41A3.77,3.77,0,0,1,39.27,24.34Z"/><path class="cls-1" d="M68.56,41.71,68,42a35.22,35.22,0,0,1-3.7,2l-.06,0L63,44.65h-.06c-1.16.51-2.35,1-3.53,1.39-.93.33-1.88.63-2.84.9A41.61,41.61,0,0,1,45.61,48.9a8.91,8.91,0,0,0,1.64.52c2,.46,6.94.89,7.17,1l-.16.09-.12.06A37.34,37.34,0,0,1,38,53.43C28,53,22.59,50.21,22.4,50a36.39,36.39,0,0,0,4.46-1s-7.48-2.46-10.3-4.28l4,.09c-1.09-.87-2.09-1.74-3-2.54-5.33-4.63-8.85-10.67-8.2-13.4a9.86,9.86,0,0,0-5-3.5c9-.83,17.26,2.61,26,8.09,3.67,2.29,6.49,4.92,9.77,7-2.16.36-6.91.64-15.9-.94,0,0,5.2,3.31,15,4.54a83.86,83.86,0,0,0,15.85.3A44,44,0,0,0,68.56,41.71Z"/><path class="cls-1" d="M246.38,84.42a18.91,18.91,0,0,1-.72,3.66c-.4,1.33-.7,2.79-2.32,2.89a31,31,0,0,1-3.5-.13c-.68,0-2-.25-2.42.51-1.15,2.29,3.4,2.16,4.58,2.21h.52c-4.81,5.31-12.6,6.71-13.08,6.8h0l-.22-.3c-1.25-1.59-5.06-4.87-12.82-5.73h-.06a18.68,18.68,0,0,1,1.27-1.62c3.22-3.69,8.26-6.79,13.75-9.46a23,23,0,0,0,10.57-11,12.67,12.67,0,0,1,2.14,2.58,8.29,8.29,0,0,1-3.19,3.93s-1.37.82-.87,1.77,1.58.63,2.13.32a6.26,6.26,0,0,0,2.27-2.32,9.55,9.55,0,0,0,.82-1.49,14.73,14.73,0,0,1,1.1,4.08c0,.19-.61.69-.73.81a9.62,9.62,0,0,1-1.4,1.12,23.73,23.73,0,0,1-4.43,2.14c-.54.22-1.4.75-1.51,1.38-.19,1,1.21,1.23,1.93,1.12l.18,0C241.41,87.45,244.6,86.69,246.38,84.42Z"/><path class="cls-1" d="M183.68,152.39a5.63,5.63,0,0,1-4.15-1.69,48.5,48.5,0,0,0-13.2.46,16.31,16.31,0,0,1-8.76,4.49c-5.13.66-5.07-1.65-4.8-2.28s2.67-1.81,7-6.36S168,133.17,168,133.17a22.36,22.36,0,0,1,1.11,9.45,19.42,19.42,0,0,1-.47,2.74,20.68,20.68,0,0,1-1.55,4.21,11.07,11.07,0,0,1,4.29-4,17.27,17.27,0,0,1,1.47,2.14c.08.15.89,1.26.81,1.41.8-1.49,4.81-4.19,4.81-4.19a10.5,10.5,0,0,1,1.75,2.86c3.3-2.42,10.61-14.13,10.61-14.13C191.2,142.67,186.12,152.22,183.68,152.39Z"/><path class="cls-1" d="M226,104.87c-.59,2.64-9.69,12.33-14.46,14.12a45.09,45.09,0,0,0,5.35-13.27,15.46,15.46,0,0,1-4.91,2.89s.15-3.29-.73-4.87a33.9,33.9,0,0,1-5.34,4.3,19.53,19.53,0,0,1-2.2-4.9c-2,3.1-5.38,7.4-9.42,9.49a30.35,30.35,0,0,0-.49-6.9c3.8-.92,7.25-2,9.85-2.94a21.28,21.28,0,0,1,5.44-2c.1,0,2.5-.51,2.25,1.24,0,0,3-2.29,5.38-1.48a2.31,2.31,0,0,1,1.45,1.15c1.18-.76,3.29-1.88,5-1.49C225.73,100.8,226.59,102.23,226,104.87Z"/><path class="cls-1" d="M193.62,105.78c-.09.27-.24.69-.44,1.2-1.91,3.43-8.15,13-20,16.31,0,0,7.33-7.45,6.52-15.7A58.47,58.47,0,0,0,193.62,105.78Z"/><path d="M198.54,27.93l-2-1.72s.71,1.68.82,2a3.9,3.9,0,0,1-2.11-.53c-.74-.58-1.81-1.26-1.54-1.26,0,0,.34,0,.61.06a3.45,3.45,0,0,0-2.3-1.11,3,3,0,0,1-1.9-.31,4.64,4.64,0,0,1-1.44-1,3,3,0,0,1-.66-1.41,11.15,11.15,0,0,0,1.48.89,5.06,5.06,0,0,1-.88-2,2.79,2.79,0,0,1,1.41.17c.79.3,1,.06,1,.06a3.23,3.23,0,0,1-.47-.9,10.37,10.37,0,0,0,1.43,1,3.67,3.67,0,0,1,2.18,0,8,8,0,0,1,2.17,1.64,9.32,9.32,0,0,0,.87.72,4.48,4.48,0,0,1-.69-1.27c.08,0,.7.45,1,.59a2.62,2.62,0,0,1,1,1.13c.1.38-.52,1-.52,1s.81,1,.81,1.47A1.15,1.15,0,0,1,198.54,27.93Z"/><path d="M206.55,34.52a.65.65,0,0,1-.5.31s-1.81-1.08-2.29-1.31c0,0,.91,1.41,1,1.74,0,0-1.56-.23-2-.78a11,11,0,0,1-2.39-.86,2.52,2.52,0,0,1-1.13-1.44l1.52.71s-1.36-1.64-1.79-2a2.6,2.6,0,0,1,1.06-.66,3,3,0,0,1,1.08-.12.94.94,0,0,0-.25-.65,15,15,0,0,1,2.39,1.77l-.2-.71a5.21,5.21,0,0,1,1.91.91,6.17,6.17,0,0,1,1.08,1.53C206.27,33.21,206.75,34.22,206.55,34.52Z"/><path d="M185.64,80.65c-.57.79-1.66.66-2.44.42-.86-.46-2.56-1.34-5-2.5-7-3.38-20.79-9.29-40.92-14.66-6.92-1.84-14.58-3.62-23-5.21-5.25-1-10.11-1.79-14.61-2.42,4.6.44,9.56,1,14.93,1.78,7,1,13.47,2.15,19.46,3.38,33.14,6.82,50.8,16.15,50.8,16.15S186.8,79,185.64,80.65Z"/><path d="M146.9,40.68a8.15,8.15,0,0,0-1.52-.78c.11.11,1.22,1.25.6,1.4a4.82,4.82,0,0,0-1.57-1.1A19.62,19.62,0,0,1,141,38.34a4.26,4.26,0,0,1-.9-1.6c.06.08.37.49.65.54a6.17,6.17,0,0,1,1.2.65,3.25,3.25,0,0,0-.65-1.05,11,11,0,0,1-1.65-1.26l.5-.15a6.14,6.14,0,0,0-.08-2,.48.48,0,0,0,0-.1c-.25-1-.13-1.59.12-1.79a12.54,12.54,0,0,1,2.19.24A8.66,8.66,0,0,1,140.9,31a.44.44,0,0,0,.24-.25c.1-.22.05-.71.5-.81a2.88,2.88,0,0,1,1.46.4c.2.1,1.34.81,1.7,1,.21.1.3.44.33.74,1.07.3,2.13.61,3.2.93l.06.05h0l0,0c-.63-.15-1.94-.33-2.55-.42-.18.18-.59.58-.75.79a4.22,4.22,0,0,0-.58,1.71,2.3,2.3,0,0,0,.56,1.66A9.16,9.16,0,0,1,147,38.89C147.19,39.45,146.82,40.31,146.9,40.68Z"/><path d="M145.84,19.27a7.05,7.05,0,0,1-1.67,1,2.48,2.48,0,0,0,.55,1.22,4.3,4.3,0,0,1-1.54-.48,4.32,4.32,0,0,0-.69,1,6.61,6.61,0,0,1-1.54,1.87,9.51,9.51,0,0,1-1.69.84,10.49,10.49,0,0,0,1.86,2.05,16.74,16.74,0,0,1-4.21-2.52,2.44,2.44,0,0,0,.18,1.32,5.13,5.13,0,0,1-3,.26A10,10,0,0,1,131,24.26a17.26,17.26,0,0,0,2.44.29s-2-1-2.38-2a2,2,0,0,1,.85-2.64,4.47,4.47,0,0,1,2.05-.44,29.89,29.89,0,0,0,4.19,1.61,11.53,11.53,0,0,1-2.53-2.17,5.32,5.32,0,0,0,1.84-.22c.4-.26.7-.92,1.47-1.17a8,8,0,0,1,1.58-.33,5.1,5.1,0,0,1-.92-.63,14,14,0,0,0,2,.4s1.32.08,1.9.15a10.12,10.12,0,0,1,2.61,0C147,17.43,146.59,18.64,145.84,19.27Z"/><path d="M160.17,33.74a5.63,5.63,0,0,1-2.48,1.7l-.1-.17-.08-.11a3.28,3.28,0,0,0-.85-.87l0,.13,0,.13s0,.08,0,.12a.72.72,0,0,1,0,.11c0,.15.07.32.11.49s0,.29.06.41-.17.09-.41.26a10,10,0,0,0-1.26,1,4.63,4.63,0,0,0-.88,1.11,4.7,4.7,0,0,0-.65,2.27,5.92,5.92,0,0,1-1.15-.68,2.73,2.73,0,0,0,1.27,1.66s.56.74.32,1.31a6.73,6.73,0,0,1-2.14-.46,8.69,8.69,0,0,0-1.69-.8,4.56,4.56,0,0,1,.89,0,5.38,5.38,0,0,0-.91-1.51c-.45-.38-1.34-1.06-1.14-1.94a7.16,7.16,0,0,1,1.56.28,9.22,9.22,0,0,0-2.69-1.68l1.4-.08s-.19-1,1.59-1.85a6,6,0,0,0,2.71-2c.37-.56.52-1.13,1-1.46a16.41,16.41,0,0,1,1.56,1,4.49,4.49,0,0,0-1.65-2,11.61,11.61,0,0,1,1.84.4,4.22,4.22,0,0,1,1.84-.44c.79.08,2.21.82,2.34,1.27A5.86,5.86,0,0,1,160.17,33.74Z"/><path d="M164.9,23.86s-.93-.23-1.29-.35a7.24,7.24,0,0,1,.75,1.33,5.81,5.81,0,0,1-1.49.7,1.82,1.82,0,0,0-1.18.72,2.62,2.62,0,0,1-2.14.76c-.85-.12-2.56-.63-2.71-.66A8,8,0,0,1,158,27.77a9.23,9.23,0,0,1-2.58.72,11,11,0,0,1-2.09-.18c-.63-.18-1.2-.49-1.24-.89a1.38,1.38,0,0,1,.31-.85,14.9,14.9,0,0,0,2.05.63s-1.91-1.78-2.59-2.27a17.4,17.4,0,0,1,2.14.49,3.51,3.51,0,0,0-.4-1c-.31-.53.27-1.06.54-1.2s1.51-.62,1.83-.84a12.32,12.32,0,0,0-1.7-1.16,19.66,19.66,0,0,1,2.63.44,3.63,3.63,0,0,0,1.47-.26,2.48,2.48,0,0,1,1.65-.22c.62.09.7.26,1.11.31a4.14,4.14,0,0,0,.81,0,2.2,2.2,0,0,0-.93-.63,6.35,6.35,0,0,1,2.09.63,4,4,0,0,1,1.82.85C165.62,23,164.9,23.86,164.9,23.86Z"/><path d="M190.82,32.81s.31.8.49,1.16a6.22,6.22,0,0,0-2-.44,1.32,1.32,0,0,1-1.41.42,5.61,5.61,0,0,1-2-1s.89,0,1.6,0a2.2,2.2,0,0,0-1.15-.53,4.1,4.1,0,0,1-1.95-.79.76.76,0,0,0,.25.79,1.21,1.21,0,0,1-1.56-1c-.22-1.33-1-1.24-.45-2.22a2,2,0,0,1,1.67-1s-1-.58-1.58-.94a17.23,17.23,0,0,1,3.87,1.6,2.1,2.1,0,0,0-.53-1,3,3,0,0,1,2.45.54c1.29.89,1.34,1.69,2.32,2.36A1.15,1.15,0,0,1,190.82,32.81Z"/><path d="M176.12,33.56a4.19,4.19,0,0,0-.8.85A3.23,3.23,0,0,1,174,35.79a2.3,2.3,0,0,1-1.29.85,10.08,10.08,0,0,1-1.56-.13,5.11,5.11,0,0,1-3.56-1.33s1.91.26,2.4.26A14,14,0,0,1,168,33.66s.49-.31.45-.76a1.38,1.38,0,0,1,.27-1.33,17.94,17.94,0,0,0,2.49.67s-1-1-2-1.87a3.25,3.25,0,0,1,1.38.24,3,3,0,0,0,1-.64,2.74,2.74,0,0,1,2.89.1A7.21,7.21,0,0,1,176,31.65a4.41,4.41,0,0,1,1.56,1.51,9.05,9.05,0,0,0-2.9-1.24A9.66,9.66,0,0,1,176.12,33.56Z"/><path d="M182.09,22.79a1.31,1.31,0,0,1-1.25,1.2c-.76.08-1.2-.22-1.47.13a2.08,2.08,0,0,1-1.07.8s-2.58-1.6-3.7-2.18a14,14,0,0,1,1.16,1.7,6.73,6.73,0,0,1-2.63-.31c-1.07-.44-1.79-.82-2.54-1.15A5.09,5.09,0,0,1,169,21.58a16.86,16.86,0,0,0,1.91.76,6.93,6.93,0,0,1-1.15-1.65A2.79,2.79,0,0,0,171,20a3.74,3.74,0,0,1,2.32-.8h.18a10.52,10.52,0,0,1,4,1.87,16.22,16.22,0,0,0-1.56-1.87,12.49,12.49,0,0,0,2-.13,3.08,3.08,0,0,1,2,.08,2.44,2.44,0,0,1,1,1,10.17,10.17,0,0,0-1.24-.44s0,.53,1.07,1.29S182.14,22.16,182.09,22.79Z"/><path d="M99.83,92.61a9.74,9.74,0,0,1,.93,3.2c.06,1.47-1.13,1.93-2.33,2.4a3.84,3.84,0,0,1-2.93-.06,1.9,1.9,0,0,0-1.07-.2,13.62,13.62,0,0,1,2.07-1.67,7.45,7.45,0,0,0-3.07,1.13,34,34,0,0,1-3.86.4,8.89,8.89,0,0,1-3.39-1.26,5.36,5.36,0,0,0-1.93.6,17,17,0,0,1,3.2-2.87,10.39,10.39,0,0,0-2.73,1.26c-.47-.47-2.74-1.86-3.33-2.33a2.33,2.33,0,0,1-.8-2.47c.2-1.33,1.73-1.47,3.13-1.53S87,89.14,87,89.14a4,4,0,0,0-1,1.33,12.27,12.27,0,0,1,2.38-1.41,37.49,37.49,0,0,0,3.81-1.31,4.39,4.39,0,0,1,4.33.33c1.4.86,2.73,3.53,2.73,3.53a15.09,15.09,0,0,1,3-.72A17,17,0,0,0,99.83,92.61Z"/><path d="M67.21,58.18c-.54.36-.59.73-1,1.27s-3,.66-3,.66a12.93,12.93,0,0,0-3.59-.54l2.39.72a12,12,0,0,1-2.63.12c-1.2-.12-1.86-1.44-2.51-2.34S57,55.8,57,55.8a3.11,3.11,0,0,0-.78-.36A31.8,31.8,0,0,1,60,55.5c-1.13-.36-2.42-.61-2.42-.61A7.72,7.72,0,0,1,58,53.58c.3-.65,1.74-.48,2.33-.42s1.38-.66,1.81-.8a6.92,6.92,0,0,1,2.5.56,1,1,0,0,1,.78.78,7.28,7.28,0,0,0-1.62.12l2.34.65s1.56.78,1.79,1.56A2.09,2.09,0,0,1,67.21,58.18Z"/><path d="M81.27,79.16c-.42,1.43-.08,2.1-.08,3.52s-1.77,2-4.53,2.44-3.94-.5-3.94-.5l.42-.93c-.92.17-3.61.26-3.61.26a28.72,28.72,0,0,0,4-2.36c-1.08.42-3.34,1-3.34,1a14.41,14.41,0,0,1-1.36-1.13A5.44,5.44,0,0,1,67.68,80c-.59-1.18.42-2.94.83-3.61a.77.77,0,0,0-.33-1.09A5.4,5.4,0,0,0,69.35,74h0a21.16,21.16,0,0,1-2.9.41h0a3.29,3.29,0,0,1-1-2.85c.17-.75.5-1.93.5-1.93h0a3.68,3.68,0,0,1-.87,0,8.28,8.28,0,0,1-1-.21h0a11,11,0,0,0,4.77-1.59h0c-.84.16-2.3.24-2.3.24h0a2,2,0,0,1,.75-1.36,2.19,2.19,0,0,1,1.32-.08c.33,0,.69.12,1.06.21l.52.13c.64.17,1.25.36,1.69.51h0a3.71,3.71,0,0,1,1.85,2.1A5.54,5.54,0,0,0,75.15,72h0a5.67,5.67,0,0,0,.93.67,2.14,2.14,0,0,0,.4.21l.4.18a9.42,9.42,0,0,0,1.21.4l.76.18.37.08a2,2,0,0,1,.61.24,3.33,3.33,0,0,1,1.25,1.48h0a7.22,7.22,0,0,1,.58,1.8,7.21,7.21,0,0,1-2.18,1.93A5.6,5.6,0,0,0,81.27,79.16Z"/><path d="M61.67,24.56a2,2,0,0,1,.89,1.61c0,1.14-.23,1.64,0,2.42s-.19,1.32-1.28,2a8.76,8.76,0,0,1-2.2.14,6.08,6.08,0,0,0,1.19.46,3.44,3.44,0,0,1-2.88.59,6.91,6.91,0,0,1-3.61,1c-1.55-.23-1.91-.87-1.91-.87s1.85-.33,3.17-.51a18.25,18.25,0,0,1-3.19-1,4,4,0,0,1,.75-1.63c.5-.51.38-.63.38-.63s-2-.47-2.71-.74a26.64,26.64,0,0,0,3.06-.63s-.28-.56.64-1.29a17.87,17.87,0,0,0,2.05-1.88c.37-.41,2.15-.45,3.15-.18a4.07,4.07,0,0,0,1.55.28c.55,0,2.88-.23,2.88-.23A3.36,3.36,0,0,1,61.67,24.56Z"/><path d="M186.2,87a2.21,2.21,0,0,1,0,.27,1.12,1.12,0,0,1,0,.15h0a2,2,0,0,1-.24.44c-.55.8-1.64.67-2.43.44-.87-.45-2.57-1.31-5.07-2.45-9.46-4.45-31.19-13.34-64.11-19.21-5.14-.92-9.83-1.66-14.25-2.24h-.23l2.5.23.4,0c4.8.51,9.59,1.05,14.36,1.71q9,1.25,18,3c5.43,1.08,10.84,2.41,16.21,3.76,2.27.57,4.52,1.17,6.77,1.8l1,.3q3.26.93,6.5,2,5.38,1.73,10.63,3.8l.65.26.88.35q2.28.93,4.53,1.94c.86.39,1.73.78,2.58,1.18l.05,0,.12.06,0,0A2.74,2.74,0,0,1,186.2,87Z"/><path d="M96,65c-.58.89-2.94,1.2-4.21,1a9.46,9.46,0,0,1-3.71.88,24.33,24.33,0,0,1-3.79-1.1,5.72,5.72,0,0,1,1.49-.51,7.83,7.83,0,0,0-1.55-1.94c-1.1-1-2.51-2.32-2.75-3.18a19.8,19.8,0,0,1,2.49-.85A8.18,8.18,0,0,1,81.2,59a7.59,7.59,0,0,1,.3-2.57,4.76,4.76,0,0,0,.61-1.71c0-.37-.07-.34.48-.52s3.19-.64,3.19-.64-.24-.61-1.9-.86A7,7,0,0,1,87,52.39c1.65.24,2.75,2.2,3.3,3.24a9.4,9.4,0,0,0,2.27,2.69c.68.49,3.21-.12,3.21-.12s-1.6,1.58-2.61,1.51a6.52,6.52,0,0,0,1.36,2.59C95.38,63,96.54,64.13,96,65Z"/><path d="M57.68,76.51A31.75,31.75,0,0,0,54,79.87c-1,1.18-2.09,2.43-4.36,1.84S47,77.86,47,77.86c.59-.83,3.28-2.09,3.28-2.09a22.5,22.5,0,0,0-3.23.32c0-.68.13-2.67.13-4.27a7.3,7.3,0,0,0-.84-3.1,10.91,10.91,0,0,1,2-1.34,12.3,12.3,0,0,1-4.2.08A5.07,5.07,0,0,0,46,66.86a3.26,3.26,0,0,1,.58-2.43A31,31,0,0,1,48.88,62c.58-.42,2.1-.17,3.61.08s1.76,1.18,1.76,1.18a5.33,5.33,0,0,0,1.52.08,16.19,16.19,0,0,1-3.28,1.43,14.34,14.34,0,0,0,2,.17s.67,2.43,1,3.69a3.77,3.77,0,0,0,.78,1.43,17.12,17.12,0,0,1-2.71,1.34,12.69,12.69,0,0,0,3.35-.65c.33.33.7.68,1.1,1.06C59.2,73,58.44,75.93,57.68,76.51Z"/><path d="M125.23,33.56a2.1,2.1,0,0,1,.54,1.48,4,4,0,0,1-.59,1.39,3,3,0,0,1-1.5,1.22,18.05,18.05,0,0,1,1.75.89l-2.36-.3a5.09,5.09,0,0,0-1.37,1.2,2.8,2.8,0,0,1-2.26,1.25s-1.36-.4-1.9-.52c0,0,.71.61,1,.92a3,3,0,0,1-1.53.15c-.75-.17-2.47-.88-3-1,0,0,1.25.09,1.63.14,0,0-2.5-2-2.87-2.45,0,0,1.08.18,1.56.3-.17-.1-1.58-1-1.63-2.09a1.69,1.69,0,0,1,1-1.5c.57-.31,1.2-.33,1.44-.76a2.64,2.64,0,0,0,.28-.94s1.86.35,2.68.54c0,0-.73-1.08-1.2-1.27a1.44,1.44,0,0,1,.77-.71A11.64,11.64,0,0,0,120,30.4a2.08,2.08,0,0,1,1.82-.26c.46.09,1.38.66,2.47,1a3.54,3.54,0,0,1-.75-.87,6.91,6.91,0,0,1,1.77.33,1,1,0,0,1,.61,1.32c-.29.44-.64.49-.66.8s.8.85,1.15,1.15C126.36,33.86,125.84,33.7,125.23,33.56Z"/><path class="cls-3" d="M145.95,71.77c-2.86-2.69-5.69-5.39-8.71-7.86-6.93-1.84-14.59-3.62-23-5.21q-7.87-1.48-14.61-2.42c4.59.44,9.56,1,14.93,1.78,7,1,13.47,2.15,19.46,3.38-3.27-2.32-6.73-4.26-10.12-6.36a20.52,20.52,0,0,1-3.39-2.43,3.07,3.07,0,0,1-1.13-1.82,2.15,2.15,0,0,1,0-.42v0a1.82,1.82,0,0,1,0-.27l0-.08a.23.23,0,0,0,0-.06c0-.07.06-.16.08-.23l.06-.13A5,5,0,0,1,121,47.84l.24-.21.17-.14.21-.18.23-.19h0l.08-.07,0,0h0l.06-.06.19-.38c4.62-8.29,16.18-10.41,16.18-10.41a10.77,10.77,0,0,0-2.61-2.58,8.52,8.52,0,0,1,4.26,0,.53.53,0,0,0,0-.1c-.25-1-.13-1.59.12-1.79a12.42,12.42,0,0,1,2.19.24A8.65,8.65,0,0,1,140.9,31c-1.95-.46-3.9-.9-5.86-1.27a157,157,0,0,0-24.12-2.43c-1.44-.06-2.88-.09-4.32-.09a6,6,0,0,1,2.6,2.45c-1.61-.12-3.22-.21-4.82-.28a13.1,13.1,0,0,1,1.39.57,22.33,22.33,0,0,0-2.24-.22,3.26,3.26,0,0,1,.7.53,3.22,3.22,0,0,1,0,.83,2.12,2.12,0,0,0,0,1.26c.17.51.68,1.63.76,2,0,0-1.54-.12-2.45-.15,0,0,2.5,1.21,3.25,1.67a7.56,7.56,0,0,0-.83,0,3.86,3.86,0,0,0-1,.83c-.18.33,0,1.81-.83,2.47s-1.94.5-2.29.9.2,1,.2,1-1.81-.41-2.36-.46A16.37,16.37,0,0,0,100,41.86a4.61,4.61,0,0,0-1.44-.06c-.73.1-3,.28-4.21-.67s-.58-1.72-.3-2,.35-.68-.45-1.61-.68-.93-.53-1.43a23.36,23.36,0,0,1,3.82.28,23.19,23.19,0,0,0-3.82-1.78s0-.35.65-.81,1.41-.81,1.68-1.95c0,0,2,.39,3.18.56-1.26-.48-1.84-1.19-3.9-1.76,0,0,1.44-.07,2-.12a3.47,3.47,0,0,0,1.44-.6,5.36,5.36,0,0,1,.72-.59,56.52,56.52,0,0,0-11.9,1.38c-6.27,1.47-12.51,3-18.76,4.57l-.15,0a14.21,14.21,0,0,0,2.81-2.51c-1.85.46-3.72.84-5.61,1.17a40.76,40.76,0,0,1-9.37.83,93.49,93.49,0,0,1-15.4-2.64l-1.33-.31c.11.08,1.82,1.15,2.41,1.49a48.92,48.92,0,0,0,7.76,3.81c.82.27,1.63.58,2.46.84s1.85.53,2.78.74,1.72.35,2.58.48a26.94,26.94,0,0,0,4.67.28,29.49,29.49,0,0,0,4.68-.54c1.79-.33,3.57-.72,5.32-1.23l.86-.25a44.21,44.21,0,0,0,7-3c.59-.29,1.18-.59,1.76-.9l0,0h0a76.68,76.68,0,0,1-6.24,4.75l-1.36.81c-.74.42-1.51.83-2.27,1.22s-1.31.65-2,.94l-1.05.44-.06,0L68,42a35.47,35.47,0,0,1-3.7,2l-.06,0L63,44.64h-.06c-1.16.51-2.36,1-3.53,1.39-.94.33-1.88.64-2.84.9A41.45,41.45,0,0,1,45.62,48.9a8.83,8.83,0,0,0,1.65.52c2,.46,6.94.89,7.17,1h0s-.14.15-.4.39a26.3,26.3,0,0,1-10.94,5.59,46.46,46.46,0,0,1-6.53,1.28l-1,.11a.45.45,0,0,0-.27.19,29.51,29.51,0,0,0-.93,10.56A45.31,45.31,0,0,0,35,74.12a0,0,0,0,1,0,0,11.33,11.33,0,0,1,.87-.78,6,6,0,0,1,2.77-1.09l-.08-.07-.08-.07a3,3,0,0,0-1.46-.56,3.14,3.14,0,0,0-.39-.06l.33-.06a8.86,8.86,0,0,1,3.46-.2h.08a2.54,2.54,0,0,1,1.56,1.13l.09.17a1.67,1.67,0,0,1,.1.23l0,.06a1.52,1.52,0,0,1,.07.24,2.33,2.33,0,0,1,0,.23s0,0,0,0,0,.16,0,.24a2,2,0,0,1-.18.84,13.62,13.62,0,0,0-1.17,3.36c0,.31-1.58,1.4-2,1.83l-.07.08h.24c.47,0,.92-.12,1.39-.17.26,0,.49,0,.68,0h0a11.88,11.88,0,0,0,1.92,2.69,6.43,6.43,0,0,1,1.85,3.18h0a.84.84,0,0,0,.35-.08h0l.15-.06.31-.15.47-.2.45-.23,0,0a13.4,13.4,0,0,1-3.43,3.43A5.57,5.57,0,0,0,45.88,88h0a8.84,8.84,0,0,1-2.59,5.79c-.19.21,2,2.83,3.38,4.36l.15.18.12.14.28.31.18.21c.1-.08.84-.72,1.22-1,.66-.53,1.35-1,2-1.49s2.19-1.27,2.19-1.27h0a2.46,2.46,0,0,1,.5-1.33c.26-.32.65-.39,1-.58a1.55,1.55,0,0,0,.42-.31,1.26,1.26,0,0,0,.15-.17l.08-.13a1.14,1.14,0,0,0,.1-.19c0-.06,0-.11.07-.17a4,4,0,0,0,.21-.63,2.36,2.36,0,0,1,.47-.82h0c-.49-.18-1-.33-1.47-.49-.79-.24-1.58-.44-2.38-.63-.53-.13-1.06-.25-1.6-.35a58.18,58.18,0,0,1,13.53-6.42c1.58-.53,4.95-1.5,4.95-1.5A5.44,5.44,0,0,1,67.68,80c-.59-1.18.42-2.94.83-3.61a.77.77,0,0,0-.33-1.09A5.4,5.4,0,0,0,69.35,74h0a21.16,21.16,0,0,1-2.9.41h0a3.29,3.29,0,0,1-1-2.85c.17-.75.5-1.93.5-1.93h0a3.68,3.68,0,0,1-.87,0,8.28,8.28,0,0,1-1-.21h0a11,11,0,0,0,4.77-1.59h0c-.84.16-2.3.24-2.3.24h0a2,2,0,0,1,.75-1.36,2.19,2.19,0,0,1,1.32-.08c.33,0,.69.12,1.06.21l.52.13c.64.17,1.25.36,1.69.51h0a3.71,3.71,0,0,1,1.85,2.1A5.54,5.54,0,0,0,75.15,72h0a5.67,5.67,0,0,0,.93.67,2.14,2.14,0,0,0,.4.21l.4.18a9.42,9.42,0,0,0,1.21.4l.76.18.37.08a2,2,0,0,1,.61.24,3.33,3.33,0,0,1,1.25,1.48c2.22-.24,4.45-.43,6.67-.56a10.15,10.15,0,0,0-.9-.92,22.07,22.07,0,0,0-8.15-4.27c5.57-.74,11.21-1,16.82-1.16q4.81-.18,9.63-.23a8.85,8.85,0,0,0-2.41-1.21,31.11,31.11,0,0,1,5.73.1,31,31,0,0,0-5.14-1.77c-1.21-.35-2.43-.69-3.64-1h.08l2.5.23.4,0c4.8.51,9.59,1.05,14.36,1.71q9,1.25,18,3c5.43,1.08,10.84,2.41,16.21,3.76,2.27.57,4.52,1.17,6.77,1.8Q152.49,73.36,145.95,71.77ZM113.69,34.6c.57-.31,1.2-.34,1.44-.76a2.64,2.64,0,0,0,.28-.94s1.86.35,2.68.54c0,0-.73-1.08-1.2-1.27a1.44,1.44,0,0,1,.76-.71A11.55,11.55,0,0,0,120,30.4a2.09,2.09,0,0,1,1.82-.26c.46.09,1.38.66,2.47,1a3.49,3.49,0,0,1-.75-.87,6.93,6.93,0,0,1,1.76.33,1,1,0,0,1,.61,1.32c-.28.44-.64.49-.66.8s.8.85,1.15,1.15c0,0-.52-.17-1.13-.31a2.11,2.11,0,0,1,.54,1.49,4.07,4.07,0,0,1-.59,1.39,3,3,0,0,1-1.5,1.22,17.88,17.88,0,0,1,1.74.89l-2.36-.3a5.11,5.11,0,0,0-1.37,1.19,2.79,2.79,0,0,1-2.26,1.25s-1.36-.4-1.9-.52c0,0,.71.61,1,.92a3,3,0,0,1-1.53.15c-.75-.17-2.47-.87-3-1,0,0,1.25.09,1.63.14,0,0-2.5-2-2.87-2.45,0,0,1.08.18,1.56.3-.17-.1-1.58-1-1.63-2.09A1.67,1.67,0,0,1,113.69,34.6ZM101.91,49a.74.74,0,0,1,.74-.54c.43,0,1.34.13,1.64-.1s.37-.84.91-1.17,1.51-.07,2.38.16,1.95.64,1.95.64c-1,.07-2.05.07-2.05.07a12.88,12.88,0,0,1,3.59,1.61c1.17.72.71,1.41,1.68,1.78s.6.71.6.71c-1.14-.24-3.11-.4-3.11-.4l2.58,1a1,1,0,0,1-.47.2c-.27,0-.74-.26-1.14-.2s-.71.74-1.15,1.11a1.31,1.31,0,0,1-1,.26,1.79,1.79,0,0,1-.57.88c-.44.33-1.15.17-2.06,0S105.24,53,105.24,53a14.86,14.86,0,0,0-2.38-1.61,12.42,12.42,0,0,1,1.38.17,7.68,7.68,0,0,0-2.08-1.34c-.3-.14-1.21-.64-1.21-.64.91.07,3.69.7,3.69.7A21.18,21.18,0,0,0,101.91,49ZM57.68,76.51A31.92,31.92,0,0,0,54,79.87C53,81,51.9,82.3,49.64,81.71S47,77.86,47,77.86c.59-.83,3.28-2.09,3.28-2.09a22.52,22.52,0,0,0-3.24.32c0-.68.13-2.67.13-4.27a7.29,7.29,0,0,0-.84-3.1,10.83,10.83,0,0,1,2-1.34,12.41,12.41,0,0,1-4.21.08A5.08,5.08,0,0,0,46,66.86a3.25,3.25,0,0,1,.58-2.43A31.5,31.5,0,0,1,48.88,62c.58-.42,2.1-.17,3.61.08s1.76,1.17,1.76,1.17a5.28,5.28,0,0,0,1.51.08,16.16,16.16,0,0,1-3.27,1.43,14.32,14.32,0,0,0,2,.17s.67,2.43,1,3.69a3.77,3.77,0,0,0,.78,1.43,17.19,17.19,0,0,1-2.71,1.34,12.69,12.69,0,0,0,3.35-.65L58,71.81C59.2,73,58.44,75.93,57.68,76.51Zm9.53-18.34c-.54.35-.59.73-1,1.27s-3,.65-3,.65a12.91,12.91,0,0,0-3.59-.54l2.39.73a12,12,0,0,1-2.64.12c-1.19-.12-1.85-1.44-2.51-2.34s.12-2.27.12-2.27a3.07,3.07,0,0,0-.78-.36,31.73,31.73,0,0,1,3.77.06,24.86,24.86,0,0,0-2.43-.61A7.67,7.67,0,0,1,58,53.58c.31-.65,1.74-.48,2.34-.42s1.38-.66,1.81-.8a6.89,6.89,0,0,1,2.5.56,1,1,0,0,1,.78.78,7.29,7.29,0,0,0-1.62.12l2.34.65s1.56.78,1.79,1.56A2.08,2.08,0,0,1,67.21,58.18ZM80.68,48.12c-.81.94-2.68.62-2.68.62A6,6,0,0,1,74,49.83a14.57,14.57,0,0,1-3.71-1.09,14.82,14.82,0,0,1-2.91-1,35.13,35.13,0,0,0,4.56.13,7.84,7.84,0,0,1-2.78-1.43s.73-.46.6-1.12a3.55,3.55,0,0,1,0-2.15,22,22,0,0,0,2.82,1.14,7.58,7.58,0,0,1-1.65-1.91,2.68,2.68,0,0,0,1.55-.6c.74-.61,1.52-1.69,2.89-1.67a3.15,3.15,0,0,1,1.27-.79,6.37,6.37,0,0,1,1.17-.13,9.79,9.79,0,0,0,2,.57,15.66,15.66,0,0,1-2.11-1.64,4.46,4.46,0,0,0,1.41.23,3.75,3.75,0,0,1,1.84.1,2.36,2.36,0,0,1,1.91,1.91c0,.74-1,1.71-.67,2.35s2.71,1.18,3.05,1.26a16.37,16.37,0,0,0-2.72,0,2.19,2.19,0,0,1-1.21.6.63.63,0,0,0-.64.88C80.84,45.83,81.48,47.18,80.68,48.12ZM96,65c-.58.89-2.94,1.19-4.2,1a9.44,9.44,0,0,1-3.71.88,24.23,24.23,0,0,1-3.79-1.1,5.76,5.76,0,0,1,1.49-.51,7.74,7.74,0,0,0-1.56-1.94c-1.1-1-2.51-2.32-2.75-3.18a19.33,19.33,0,0,1,2.49-.85A8.2,8.2,0,0,1,81.2,59a7.57,7.57,0,0,1,.3-2.56,4.74,4.74,0,0,0,.61-1.71c0-.37-.07-.34.48-.52s3.2-.64,3.2-.64-.24-.6-1.9-.86A7,7,0,0,1,87,52.39c1.65.24,2.75,2.2,3.29,3.24a9.4,9.4,0,0,0,2.27,2.69c.65.46,3-.07,3.19-.12-.17.17-1.64,1.57-2.6,1.51a6.49,6.49,0,0,0,1.36,2.59C95.37,63,96.54,64.13,96,65Z"/><path d="M73,99.48a7.9,7.9,0,0,0-2.38,1.41,5.59,5.59,0,0,0-2,2.82,15.19,15.19,0,0,1,2-1.48c-.33.51-.19.77-.9,2.37s-2.44,1.54-3.65,1.67-3.2-1.34-3.2-1.34a9.1,9.1,0,0,0-2,1.47,11.73,11.73,0,0,1,2.7-4,19,19,0,0,0-2.5,1.53c-.9-.7-4.05-1.6-6.16-2.76a3.57,3.57,0,0,1-1.86-3.4,9.22,9.22,0,0,1,1.29-3.15,7.18,7.18,0,0,0-1.47,1.22,3.93,3.93,0,0,1,0-.71v0a2.46,2.46,0,0,1,.5-1.33c.26-.32.65-.39,1-.58a1.55,1.55,0,0,0,.42-.31,1.26,1.26,0,0,0,.15-.17l.08-.13a1.14,1.14,0,0,0,.1-.19c0-.06,0-.11.07-.17a4,4,0,0,0,.21-.63,2.36,2.36,0,0,1,.47-.82,7.24,7.24,0,0,1,2-1.42,3.55,3.55,0,0,0-.77,1.94h0a4.55,4.55,0,0,1,4-2.15,5.46,5.46,0,0,0-1.15.51s1.09.38,2.18.7a22.8,22.8,0,0,0,4.94.51,28.9,28.9,0,0,1,4,.51c1.15-.38,4.69-1.28,4.69-1.28-1.22.76-3.4,1.86-3.4,1.86C76.83,94.47,73,99.48,73,99.48Z"/><path d="M103.5,112.82a3,3,0,0,1-2,1.58l.29-.55a3.21,3.21,0,0,1-2.15-.35,4.22,4.22,0,0,1,.67,2l-.39.73,1.34-.1-.76.93c.22,2.17-1.58,3-3.68,2.82s-4.64-2.33-4.64-2.33a14.38,14.38,0,0,1,1.73-3.09,16.27,16.27,0,0,0-3.16,1.78c-1.93-1.19-1.53-.79-7-1.55a27,27,0,0,1-8.22-2.21,4.91,4.91,0,0,1,.72-2.2,5.16,5.16,0,0,0-2,1.65,3.89,3.89,0,0,1-1.44-4.06c.62-2.17,3.83-2.5,3.83-2.5a4.85,4.85,0,0,1,2.73-.86c-.36.22-1,.63-1,.63a78.23,78.23,0,0,1,7.82.48c2.1.17,4.36.16,4.36.16l2.15-.49L89,107.69a23.3,23.3,0,0,1,5.46-1.75,3.52,3.52,0,0,1,1.67.35c1,.44,1.42,2.05,1.42,2.05.86-.84,2.28-.34,3.74,1.18a5.16,5.16,0,0,1,1.52,3.11Z"/><path d="M102.46,34.22s2.5,1.2,3.25,1.66a7.61,7.61,0,0,0-.84,0,3.86,3.86,0,0,0-1,.83c-.18.33,0,1.81-.83,2.47s-1.94.5-2.29.9.2,1,.2,1-1.81-.41-2.36-.46A16.19,16.19,0,0,0,100,41.85a4.62,4.62,0,0,0-1.44-.06c-.73.1-3,.28-4.21-.68s-.58-1.72-.3-2,.35-.68-.45-1.61-.68-.93-.53-1.43a23.23,23.23,0,0,1,3.82.29,23.15,23.15,0,0,0-3.82-1.77s0-.35.65-.81,1.4-.81,1.68-1.95c0,0,2,.39,3.18.56-1.26-.48-1.84-1.19-3.9-1.77,0,0,1.43-.07,2-.12a3.45,3.45,0,0,0,1.44-.61,5.37,5.37,0,0,1,.72-.59,3.39,3.39,0,0,1,1.78-.56,10.84,10.84,0,0,1,3.78.63,12.83,12.83,0,0,1,1.39.57,22.36,22.36,0,0,0-2.24-.22,3.25,3.25,0,0,1,.7.53,3.26,3.26,0,0,1,0,.83,2.12,2.12,0,0,0,0,1.26c.17.51.68,1.63.76,2C104.91,34.36,103.37,34.24,102.46,34.22Z"/><path d="M113.36,52.19c-1.14-.24-3.11-.4-3.11-.4l2.58,1a1,1,0,0,1-.46.2c-.27,0-.74-.26-1.14-.2s-.71.74-1.15,1.11a1.31,1.31,0,0,1-1,.26,1.8,1.8,0,0,1-.57.88c-.44.33-1.15.17-2.05,0S105.24,53,105.24,53a14.81,14.81,0,0,0-2.38-1.61,12.73,12.73,0,0,1,1.38.17,7.66,7.66,0,0,0-2.09-1.34c-.3-.14-1.21-.64-1.21-.64.91.07,3.69.7,3.69.7A21.11,21.11,0,0,0,101.91,49a.74.74,0,0,1,.74-.54c.43,0,1.34.13,1.64-.1s.37-.84.91-1.18,1.51-.06,2.38.17,1.95.64,1.95.64c-1,.07-2,.07-2,.07a12.67,12.67,0,0,1,3.59,1.61c1.17.72.71,1.41,1.68,1.78S113.36,52.19,113.36,52.19Z"/><path d="M94.66,19c-.14,1.2-1.68,2.27-2.1,2.54a3.34,3.34,0,0,0-1.41,1.6,2,2,0,0,1-1.56,1.33c-.5,0-1.18.77-1.18.77a4.14,4.14,0,0,0,1.86-.17l-1.36,1.09a4.94,4.94,0,0,1-2.28.59c-.51,0-1,0-2.56,0s-3.34-.19-3.87-1.17-.72-1-.75-1a10.7,10.7,0,0,1-3.38.48,13.52,13.52,0,0,0,4.07-3,12.07,12.07,0,0,1-2.52.7,2.17,2.17,0,0,1-.18-1.34,1.46,1.46,0,0,1,.69-1,2.27,2.27,0,0,1,.5-1A5.32,5.32,0,0,1,81.51,18a5.77,5.77,0,0,0,2.56-.91,8.44,8.44,0,0,1,3.74-1.19,5.32,5.32,0,0,1,1.47.27c.59,0,1.91-.27,1.91-.27a15.62,15.62,0,0,1-2.83,1.87,13.47,13.47,0,0,0,3.75-1C94.16,16.86,94.8,17.82,94.66,19Z"/><path d="M120.78,17.25c-.09.65-.56,2.33-1.44,2.71s-1.13.44-1.13.44v1.94a21.4,21.4,0,0,1-1.6-1.56,8,8,0,0,1-1.29-.12c-.93-.14-2.05,1.44-3.78,1.31,0,0-2.84-.61-3.3-1.77a3.19,3.19,0,0,1-.1-2.47,7.82,7.82,0,0,0,1.68,1.63,8.1,8.1,0,0,1-.65-2.42,1.89,1.89,0,0,0,.65-.84c.1-.42,1.17-1.07,1.82-1.21a2.4,2.4,0,0,1,1.29.14,13.81,13.81,0,0,0,1.32,2.39,25.72,25.72,0,0,1,0-4.62,18.29,18.29,0,0,0,1.08,2.08s.78-.08,1.9-.27a3,3,0,0,1,2.75.56A2.46,2.46,0,0,1,120.78,17.25Z"/><path d="M85.27,44a16.29,16.29,0,0,0-2.71,0,2.2,2.2,0,0,1-1.21.6.63.63,0,0,0-.64.88c.14.37.78,1.71,0,2.65s-2.68.62-2.68.62A6,6,0,0,1,74,49.83a14.48,14.48,0,0,1-3.71-1.09,15.05,15.05,0,0,1-2.91-1,35.74,35.74,0,0,0,4.56.13,7.91,7.91,0,0,1-2.78-1.43s.73-.46.6-1.13a3.55,3.55,0,0,1,0-2.15,21.87,21.87,0,0,0,2.82,1.14,7.59,7.59,0,0,1-1.64-1.91,2.67,2.67,0,0,0,1.54-.6c.74-.6,1.52-1.69,2.89-1.67a3.15,3.15,0,0,1,1.27-.79,6.39,6.39,0,0,1,1.17-.13,9.79,9.79,0,0,0,2,.57,15.81,15.81,0,0,1-2.11-1.64,4.48,4.48,0,0,0,1.41.23,3.75,3.75,0,0,1,1.84.1,2.36,2.36,0,0,1,1.91,1.91c0,.74-1,1.71-.67,2.35S84.93,43.93,85.27,44Z"/><path class="cls-3" d="M198.45,56.07c0,.94-2.15.68-3.76.54s-9.8.68-12.62,2a42.06,42.06,0,0,0-7,2.3c-.64.28-1.27.57-1.89.88a14.35,14.35,0,0,0-2.16,1.28l-.23.18a8.18,8.18,0,0,0-2.16-3.85,4.1,4.1,0,0,0-.31-.31,7,7,0,0,0-.71-.58,9.36,9.36,0,0,0-2.86-1.42,11.34,11.34,0,0,0-1.22-.3,13.87,13.87,0,0,0-2.13-.23h-.11c3.6-1.71,8-3.41,11.76-3.62,7.84-.44,18.17,1.7,18.17,1.7s5.79-7.24-2.41-15.72A28.66,28.66,0,0,1,195,46.68C197.51,51.77,198.45,55.13,198.45,56.07Z"/><path class="cls-3" d="M221.89,46.94a36.57,36.57,0,0,0-5-3.53c-1.41-.88-2.92-1.74-4.34-2.46l-.15-.08c7.9,1.3,9.75-.76,10.17-1.61l0,.08a5.77,5.77,0,0,1,.31.64A7.23,7.23,0,0,1,221.89,46.94Z"/><path class="cls-4" d="M166.15,51.41s-7.15,4.5-12.32,3.17-14.06-8.36-14.06-8.36a33.88,33.88,0,0,1,9,.49l.15,0a9.46,9.46,0,0,1,2.93,1.63c.5.36,1,.77,1.43,1.15.1.08,1.35.84,1.4.84s0,.18,0,.28a2.39,2.39,0,0,0,4.78,0,2.35,2.35,0,0,0-.45-1.39C163.73,50.59,166.15,51.41,166.15,51.41Z"/><path class="cls-1" d="M156.36,49.36a1.09,1.09,0,0,1-1.11,1.11,1.65,1.65,0,0,1-.54-.11c-.06,0-1.31-.76-1.4-.84-.48-.37-.93-.79-1.43-1.15a9.52,9.52,0,0,0-2.93-1.63c.63.12,3.07.6,4.51,1l2.06.56S156.4,48.67,156.36,49.36Z"/><path class="cls-3" d="M182.65,51.44A10.49,10.49,0,0,0,187,49.27h0l0,0a11.9,11.9,0,0,1-8.06.35c-.44-.15-.9-.31-1.35-.5l-.49-.23a48.65,48.65,0,0,1-7.48-5.1,59.12,59.12,0,0,0-13.05-7.84,10,10,0,0,0-1.26,1v.1a8.35,8.35,0,0,0,2.89,5.56,39.71,39.71,0,0,0,7.3,4.17,5.79,5.79,0,0,1-.12-1.85,12.42,12.42,0,0,0,4.52,4.17l.47.24c.71.34,1.65.74,2.59,1.11a21.53,21.53,0,0,0,2.05.68A17.26,17.26,0,0,0,182.65,51.44Z"/><path class="cls-1" d="M153.09,57.2a73.1,73.1,0,0,0-7.18-3.35q-2.29-1.17-4.51-2.46c-2-1.16-4-2.39-5.88-3.73a19.82,19.82,0,0,1-2.72-1.94.38.38,0,0,0-.16-.11,11.25,11.25,0,0,0-1.43-.12,18.37,18.37,0,0,0-1.86,0l-.76.08c.55,1.78,3,4.41,3,4.41a9.45,9.45,0,0,1-2.64-.33c2.14,2.88,8.07,6.5,12.68,7.4a42.6,42.6,0,0,0,8.8.74c-.65.33-1.73.74-1.73.74A19.53,19.53,0,0,1,153,59c.32.06.67.15,1,.25,1.63.42,3.66,1.09,4.85,1.51l.38.13c-.57-.38-1.15-.76-1.74-1.11C156.29,59,154.62,58,153.09,57.2Z"/><path class="cls-1" d="M130.41,42.56a32.11,32.11,0,0,1,5.89-1.16,45.36,45.36,0,0,1,18.82,2.5c5.82,2,11.19,5,17.16,6.6q1.14.31,2.3.55l.43.09a21.5,21.5,0,0,1-2-.67c-.94-.37-1.88-.77-2.59-1.11l-.47-.24a12.44,12.44,0,0,1-4.52-4.17,5.83,5.83,0,0,0,.12,1.85,39.71,39.71,0,0,1-7.3-4.17,8.36,8.36,0,0,1-2.89-5.56V37a4.63,4.63,0,0,0-.88,1.11,4.7,4.7,0,0,0-.65,2.27,5.92,5.92,0,0,1-1.15-.68,2.73,2.73,0,0,0,1.27,1.66s.56.74.32,1.31a6.73,6.73,0,0,1-2.14-.46,8.69,8.69,0,0,0-1.69-.8,4.56,4.56,0,0,1,.89,0,5.38,5.38,0,0,0-.91-1.51c-.45-.38-1.34-1.06-1.14-1.94a7.16,7.16,0,0,1,1.56.28,9.22,9.22,0,0,0-2.69-1.68l1.4-.08s-.19-1,1.59-1.85a6,6,0,0,0,2.71-2c.37-.56.52-1.13,1-1.46a16.41,16.41,0,0,1,1.56,1,4.49,4.49,0,0,0-1.65-2s-4.62-.52-7.91,1.86l.27.17.09.06.19.13.09.06.2.13.06,0,.24.17h0l.18.13.07.06.09.06.06,0h0l.06.05h0l0,0c-.63-.15-1.94-.33-2.55-.42-.18.18-.59.58-.75.79a4.22,4.22,0,0,0-.58,1.71,2.3,2.3,0,0,0,.56,1.66A9.16,9.16,0,0,1,147,38.89c.2.56-.17,1.42-.08,1.79a8.15,8.15,0,0,0-1.52-.78c.11.11,1.22,1.25.6,1.4a4.82,4.82,0,0,0-1.57-1.1A19.62,19.62,0,0,1,141,38.34a4.26,4.26,0,0,1-.9-1.6c.06.08.37.49.65.54a6.17,6.17,0,0,1,1.2.65,3.25,3.25,0,0,0-.65-1.05,11,11,0,0,1-1.65-1.26l.5-.15a6.14,6.14,0,0,0-.08-2,8.51,8.51,0,0,0-4.26,0,10.84,10.84,0,0,1,2.61,2.58s-11.56,2.12-16.19,10.41l-.19.38L122,47l.1-.08h0a26.15,26.15,0,0,1,3.11-2.34A26.18,26.18,0,0,1,130.41,42.56Z"/><path d="M188.85,38.93A25.4,25.4,0,0,0,187,37.19l0,.08.07.13.06.12.08.14.14.29.08.17.17.38c.17.4.37.89.56,1.43a17.7,17.7,0,0,1,.51,1.76c0,.21.09.42.13.63s0,.16,0,.24a9.19,9.19,0,0,1-.47,4.83,5.66,5.66,0,0,1-1.23,1.73l-.17.15a10.5,10.5,0,0,1-4.32,2.17,17.3,17.3,0,0,1-7.63-.31h0l-.43-.09q-1.16-.24-2.3-.55c-6-1.6-11.33-4.62-17.16-6.6a45.37,45.37,0,0,0-18.82-2.5,32.13,32.13,0,0,0-5.89,1.16,26.13,26.13,0,0,0-5.19,2,26.37,26.37,0,0,0-3.11,2.34l.21,0,.3-.08c1.42-.35,2.92-.72,4.44-1,.51-.08,1-.15,1.53-.2l.76-.08a18.37,18.37,0,0,1,1.86,0,11.46,11.46,0,0,1,1.43.13.37.37,0,0,1,.16.11,19.7,19.7,0,0,0,2.72,1.94c1.89,1.34,3.88,2.57,5.88,3.73q2.22,1.28,4.51,2.46a73.11,73.11,0,0,1,7.18,3.35c1.54.81,3.2,1.81,4.41,2.57.59.35,1.17.73,1.74,1.11l1.1.74a59.43,59.43,0,0,1,5.89,4.51c.54.47,1.07.94,1.6,1.42.84.78,1.61,1.62,2.44,2.41-.07-.06-.08-.38-.11-.48a5.64,5.64,0,0,0-.19-.54c-.15-.37-.29-.76-.45-1.13-.31-.74-.67-1.47-1-2.18a34.63,34.63,0,0,0-2.61-4.1q-.81-1.1-1.7-2.15c-.43-.5-.88-1-1.34-1.48s-.8-1.11-1.34-1.29l-.05,0h-.1c3.6-1.71,8-3.41,11.76-3.62,7.84-.44,18.17,1.7,18.17,1.7S197.05,47.41,188.85,38.93Zm-35,15.65c-5.18-1.33-14.06-8.36-14.06-8.36a33.88,33.88,0,0,1,9,.49c.06,0,3,.57,4.66,1l2.06.56s.88.39.84,1.08a1.09,1.09,0,0,1-1.11,1.11,1.65,1.65,0,0,1-.54-.11c0,.09,0,.18,0,.28a2.39,2.39,0,0,0,4.78,0,2.35,2.35,0,0,0-.45-1.39c4.71,1.34,7.14,2.16,7.14,2.16S159,55.91,153.83,54.58Z"/></g></symbol><symbol viewBox="0 0 156.64 141.05" id="arrow"><title>difference-illo-arrow</title><path class="cls-1" d="M154.51,76.06l.1-.12.16-.19.14-.17.11-.14.14-.2.09-.13.14-.21.08-.13.12-.21.08-.14.1-.21.08-.16.09-.19.08-.19.07-.17.08-.21.05-.15.08-.24,0-.13.07-.26,0-.12.06-.27,0-.12c0-.09,0-.18,0-.27s0-.1,0-.14,0-.17,0-.25,0-.13,0-.19,0-.14,0-.21,0-.24,0-.36v-.09c0-.12,0-.24,0-.36s0-.14,0-.21,0-.13,0-.19,0-.17,0-.25,0-.1,0-.14,0-.18,0-.27l0-.13-.06-.27,0-.12-.07-.26,0-.13-.08-.24-.05-.15-.08-.21-.07-.17-.08-.18-.09-.19-.08-.16-.11-.21-.08-.14-.12-.22-.08-.12-.14-.21-.08-.12-.14-.2-.11-.14-.14-.18-.15-.18-.11-.13-.29-.3L91.95,2.41A8.24,8.24,0,1,0,80.29,14.07L128.5,62.28H8.24a8.24,8.24,0,0,0,0,16.48H128.5L80.29,127a8.24,8.24,0,0,0,11.66,11.66l62.28-62.28Z"/></symbol><symbol viewBox="0 0 100 100" id="itunes 4"><title>itunes 4</title> <path d="M34.654,21.67v51.301c-3.423-1.393-7.51-1.871-11.754-1.022c-9.634,1.928-16.208,9.67-14.68,17.297
	c1.523,7.625,10.569,12.248,20.207,10.315c8.682-1.733,14.819-8.198,14.837-15.049h0.059V40.005l39.008-14.997v33.717
	c-3.424-1.391-7.51-1.871-11.753-1.021c-9.634,1.928-16.207,9.67-14.68,17.297c1.522,7.627,10.57,12.248,20.206,10.318
	c8.147-1.632,14.055-7.437,14.764-13.808H91V0L34.654,21.67z"/> </symbol><symbol viewBox="0 0 600 229.31" id="jaguar"><title>car-logos</title><path class="cls-1" d="M25.35,74.29c5.17-3.21,3.89-7.07,5.81-11s8.45-9.69,14.91-2.53,2.42,10.14-1.29,13.53c-3.43,3.16-10.37,9.08-5.85,14.87s9.71,7.75,16.85,2.62C61,87.93,74.94,80,83,75.49c2-1.2,4.38-4.11,13.26-.54a311.1,311.1,0,0,1,30.41,13.53l-13.35,6.17c-7.16,4.56-13.28,17.28-13.92,21.85-.68,7.12,1.94,17.28,11.61,25.73h21l12.58-18.1-.95-2c16.18-1.94,60.14,11.32,80.83,3.25,14.26,5.76,39.47,9,86,4.5,8.38-.63,19.88-2.37,27,6.73,7.34,9.58,43.51,47.58,55.15,51.51s60.14,3.86,72.74,6.14c10.91,1.9,15.23,0,24.26,10.28l19.41,17.19c2.28,2.55,9,7.55,16.83,7.55h13.4c7.77-.59,12-6.1,13.89-12.49h33c10.37,0,13.6-9.29,13.6-17.69s-5.63-15.23-14.66-15.23H563c-12.31.32-18.5-6.3-21.17-8.52C464.51,119.83,320.3,56.78,190.31,13.18,173.48,8,148.56,4.48,133,4.48s-22.93-1.29-39.15-.7C78.39,4.39,62.26,7,53.18,9.65s-29.41,7.75-30.41,20C15,35.48,7.09,43.41,3.86,46.57S-.5,56.17,5.94,63.28s14.26,14.21,19.41,11m-9-27.77c1.38-1.11,3.61-3.64,6.3-6.05a16.2,16.2,0,0,0,9.69,1.33c15.7-1.33,18.48.47,22,2.1S59,43.25,57.72,41c-1.76-3-3.09-4.2-6.35-7.43l6.35-2c7.09,0,14.26,2.67,17.73,3s5.83.34,7.14-2.3c2.33-6.85,6.48-8.07,9.38-9s5.17-3.57,2.58-4.27H88.11c-5.51.34-5.81,2.33-7.43,4.27s-3.55,4.18-7.79,3.52S59.8,24.65,54.63,25c-4,.23-9.85,4.41-21.17,4.09C37.93,17.7,80,13.18,88.11,12.82c53.65-2.24,65,.36,89.58,5.51s87,29.48,157.83,57.59C402.81,102.62,508,156,538.16,182.84c1.74,1.72,11.59,8.72,22.73,8.72h23.29c5.81,0,7.43,5.31,7.43,7.84s-1.47,9.6-6.28,9.6H554.1c-1.76-13.74-12-15.7-17.8-16.06a26.35,26.35,0,0,1-12.61-4.16s-21-18.75-26.84-24.94-9.69-8-15.2-8H462.56c-3.89,0-8.45.25-14.84-8.43s-23-22.64-27.18-25.6-5.17.36-2.6,2.62c2.26,2.21,12.94,9.06,19.38,19.72s12,16.18,16.58,18.43c3.82,2.55,15.81,2.24,22.89,2.24s9.69.68,15.5,6.51,19.13,17.46,22.68,21.35,9.69,7.43,18.39,7.43,13,5.49,12.58,10.62c-.25,4.9-2.85,10.41-6.71,10.41H525.32c-2.3,0-7.45-3.3-8.74-4.54a219.66,219.66,0,0,1-22.3-19.72c-6.48-6.8-13-8.72-21.66-10.05s-45-2.91-53.07-3.21-20.33-.36-29.08-5.83c-8.56-5.42-42.7-42.7-48.48-49.45-6.82-7.79-17-6.8-23.13-7-60.48,6.6-82,.43-88.47-3.43l6.3-10.82c18.91,4.38,44.78.16,48.37-.81s2.87-4.56-.63-3.89c-8.13,1-43.38-3.21-46.92-3.89-.34-9.08-20.69-36.24-23.27-41.43s-.34-8.36,2.26-10.57,2.58-5.2.32-5.2c-9.35.95-11.66,8.36-9.71,17.49s22,35.15,20.72,41.37-7.46,14.66-11,18.28c-17.49,4.18-56.25-6.17-78.57-5.51-8.54.23-7.09,7.59-4,10.19l-7.14,10.35H116.94c-5.56-1.58-7.5-10-8.45-14.28a27.23,27.23,0,0,1,9.06-16.45c13.71-11.82,68.54-6.46,73.4-6.46s3.57-2.33.65-3.25c-5.2-1.26-20.9-5.56-30.07-5.78-2.08-6.17-6-10.53-7.3-16.54-1.13-5.08.34-11.45,2.12-15.34,2.42-7.46-2.73-6.28-4.52-4.25-2.49,3.57-8.61,11.52-8.95,17.33s5.67,16.18,7.32,18.8c-2.91,0-8.11.23-10.39.23C124.14,74.29,96,65.39,90.5,63.4a83.07,83.07,0,0,0,3.39-8.54c1-3.19,2.94-2.58,5.2-1.92,3.25,1.67,18.46,7.14,23.27,9s9.4.95,11.68-.95,9.69-8.38,12.9-12.88-1.92-4.9-3.86-2.69c-6.14,5.67-15.2,8.83-20,7.82S102.68,44.53,98.77,42c-8.7-3.89-12,2.24-12.92,5.85A56.89,56.89,0,0,1,64.32,76.73c-1.94,1.58-10.64,6.76-13.26,8.38a1.83,1.83,0,0,1-2.71-2.42c1.9-1.49,9-8.77,9.53-11.32C59.46,62,56.89,58.9,53,54.7s-8.88-5.6-14.71-5.6S27,54.38,25.08,56.31s.45,5.85-2.76,8.13-7-3.68-8.95-6.3c4.25-4.86,3.89-7.12,2.94-11.61"/></symbol><symbol viewBox="0 0 72 72" id="jays-color"><title>jays-color</title> <g>  <clipPath id="jays-color-SVGID_2_"> <use xlink:href="#jays-color-SVGID_1_" overflow="visible"/> </clipPath> <g clip-path="url(#jays-color-SVGID_2_)"> <rect fill="#707471" width="72" height="72"/> </g> <g clip-path="url(#jays-color-SVGID_2_)"> <defs> <rect id="jays-color-SVGID_3_" width="72" height="72"/> </defs> <clipPath id="jays-color-SVGID_4_"> <use xlink:href="#jays-color-SVGID_3_" overflow="visible"/> </clipPath> <g clip-path="url(#jays-color-SVGID_4_)"> <path fill="#9CD19B" d="M11.84,27.213c-0.107-0.105-0.954-1.021-0.954-1.021s5.134-6.179,22.761-8.808
				c6.137-0.908,18.59-0.633,21.006-0.592h34.883l-4.5,6.64h-1.611c-2.85,0-3.525,0-5.352,0.495
				c-2.471,0.701-6.215,2.309-10.188,8.201l-2.443,3.625l-2.43,3.592c-3.744,6.212-8.471,11.109-14.033,14.54
				c-6.215,3.828-13.26,5.833-20.93,5.96c-5.922,0.105-10.822-1.391-13.308-4.242c-1.194-1.383-1.865-3.063-1.865-4.761
				c0-0.356,0.027-0.718,0.081-1.081c0.572-3.733,4.652-6.64,9.396-6.88c-7.507-6.008-23.316-6.608-23.316-6.608
				S2.047,31.336,11.84,27.213z"/> <path fill="#FFFFFF" d="M33.4,15.744c-18.052,2.689-23.566,9.113-23.794,9.387l-0.938,1.128c0,0,0.198,0.213,0.368,0.399
				c-8.473,4.059-11.294,8.541-11.417,8.748l-1.477,2.414l2.831,0.109c0.134,0.008,11.401,0.492,18.997,4.189
				c-3.56,1.355-6.152,4.1-6.658,7.389c-0.067,0.45-0.1,0.896-0.1,1.335c0,2.079,0.805,4.155,2.271,5.848
				c2.768,3.175,8.087,4.931,14.594,4.821c7.973-0.133,15.299-2.225,21.773-6.21c5.791-3.573,10.701-8.654,14.588-15.101
				l-0.047,0.077l2.426-3.595l2.449-3.625c3.662-5.439,7.037-6.9,9.256-7.531c1.598-0.434,2.104-0.434,4.9-0.434h2.492l6.76-9.965
				c0,0-38.016,0-38.018,0l-0.365-0.005C44.4,14.941,37.377,15.151,33.4,15.744z"/> <path fill="#0065A3" d="M11.84,27.213c-0.107-0.105-0.954-1.021-0.954-1.021s5.134-6.179,22.761-8.808
				c6.137-0.908,18.59-0.633,21.006-0.592h34.883l-4.5,6.64h-1.611c-2.85,0-3.525,0-5.352,0.495
				c-2.471,0.701-6.215,2.309-10.188,8.201l-2.443,3.625l-2.43,3.592c-3.744,6.212-8.471,11.109-14.033,14.54
				c-6.215,3.828-13.26,5.833-20.93,5.96c-5.922,0.105-10.822-1.391-13.308-4.242c-1.194-1.383-1.865-3.063-1.865-4.761
				c0-0.356,0.027-0.718,0.081-1.081c0.572-3.733,4.652-6.64,9.396-6.88c-7.507-6.008-23.316-6.608-23.316-6.608
				S2.047,31.336,11.84,27.213z"/> <g> <path fill="#231F20" d="M55.061,18.332c0,0-14.514-0.299-21.219,0.598c-7.262,0.949-17.072,4.205-20.508,7.536l1.328,1.249
					c0,0-1.25,0.52-3.592,1.69C3.882,33.01,2.428,35,2.428,35c6.17,0.672,17.236,1.42,24.785,10.257
					c-1.246-0.591-2.673-0.869-4.335-0.845c-4.233,0.07-7.78,2.461-8.261,5.585c-0.244,1.64,0.223,3.198,1.37,4.514
					c2.146,2.46,6.651,3.868,12.035,3.775c7.399-0.124,14.177-2.049,20.138-5.718c5.354-3.289,9.887-8,13.5-13.996l0.764-1.123
					l4.174-6.182c4.271-6.355,8.359-8.082,11.059-8.822c2.029-0.58,2.9-0.58,5.768-0.58h0.785l2.402-3.533H55.061z M41.152,38.947
					c-2.055,3.125-5.301,8.184-8.812,11.262c-1.494-2.59-5.022-8.26-8.629-10.51c1.658,0.467,3.789,0.997,6.473,1.481
					c0,0-1.656-1.119-2.809-1.974c5.891-0.355,11.127-2.275,15.646-7.945c0,0,0.574-0.293,3.076,0.345L41.152,38.947z
					 M49.223,26.994l-2.438,3.621c-0.855-0.646-1.945-1.372-3.322-2.16c0,0-0.355-0.178-0.533-0.287
					c-1.133-0.607-2.441-1.251-3.93-1.852c-1.273-0.471-2.688-0.901-4.191-1.253l2.787-1.298c-5.229-0.154-9.309,0.371-11.693,0.789
					c-0.52,0.061-1.039,0.141-1.55,0.244c-4.466,0.906-7.514,2.258-7.514,2.258l-0.778-0.578
					c10.643-8.061,37.938-6.699,37.938-6.699s-3.896,2.337-6.771,4.314c-0.85,0.582-2.592,1.852-2.592,1.852
					C46.156,26.241,47.697,26.596,49.223,26.994z"/> <path fill="#FFFFFF" d="M26.434,37.762c-7.561,0.082-7.75-3.961-7.912-4.463c0,0,2.09,1.153,5.271-0.156
					c1.188-0.541,2.807-1.493,4.734-3.106c1.619-1.349,3.139-2.884,3.723-2.929c0,0-3.395-0.185-7.888,0.539
					c-3.286,0.426-5.134,1.154-5.134,1.154s2.396-1.756,6.48-2.577c0.814-0.2,2.27-0.536,3.275-0.692
					c1.477-0.242,4.229-0.525,4.229-0.525s-0.857,0.568-1.426,0.922c4.631,0.492,10.383,3.611,10.383,3.611
					S37.107,37.651,26.434,37.762z"/> <path fill="#FFFFFF" d="M23.002,29.305c2.062-0.703,4.239-0.437,4.239-0.437s-1.339,1.218-2.628,2.024
					c-1.074,0.658-2.521,1.304-3.566,1.336c-0.26,0.01-0.502-0.027-0.697-0.105c0.406-0.073,0.856-0.276,1.309-0.578
					C22.678,30.861,23.256,29.79,23.002,29.305z"/> <path fill="#FFFFFF" d="M20.371,30.705c-0.303,0.211-0.637,0.264-0.725,0.125c-0.092-0.135,0.081-0.42,0.402-0.648
					c0.301-0.212,0.627-0.271,0.722-0.13C20.863,30.193,20.683,30.496,20.371,30.705z"/> <path fill="#FFFFFF" d="M55.861,19.82c-0.002,0.009-13.465,19.93-13.465,19.918c-3.34,5.126-9.133,14.023-14.854,14.602
					c-3.359,0.352-4.804-1.705-4.836-3.205c-0.046-1.924,2.218-3.833,4.414-4.311c-1.008-0.698-2.363-1.016-4.151-0.992
					c-3.429,0.059-6.522,2.025-6.882,4.383c-0.184,1.225,0.156,2.34,1.018,3.311c1.863,2.146,5.935,3.355,10.893,3.277
					c7.127-0.121,13.65-1.971,19.379-5.503c5.264-3.236,9.572-7.778,13.031-13.517l4.961-7.336
					c4.225-6.283,8.418-8.473,11.893-9.436c2.227-0.61,3.205-0.61,6.162-0.61l0.387-0.581H55.861z"/> <path fill="#707471" d="M29.055,56.764c6.717-0.271,12.881-2.107,18.322-5.464c5.264-3.236,9.572-7.778,13.031-13.517
					l4.961-7.336c4.225-6.283,8.418-8.473,11.893-9.436l-16.395,4.572c-1.336,1.467-2.74,3.229-4.137,5.291
					c-0.818,1.232-4.086,6.039-4.623,6.846c-0.807,1.27-1.465,2.245-1.881,2.82c-2.168,3.056-4.803,6.049-7.842,8.57
					c-4.279,3.553-12.471,7.453-17.771,4.81c-1.289-0.666-1.889-1.825-1.906-2.786c-0.046-1.924,2.218-3.833,4.414-4.311
					c-0.777-0.298-2.098-0.18-2.863-0.049c-1.773,0.314-4.209,1.518-4.783,3.303C18.4,53.404,23.066,56.613,29.055,56.764z"/> <g> <path fill="#707471" d="M4.749,34.122c0,0,0,0.003,0,0.005c8.714,0.98,12.481,2.423,14.806,3.551
						c-1.941-1.686-2.176-2.984-2.385-3.701c-1.484-0.452-2.621-0.57-3.166-0.596C9.555,33.197,6.233,33.564,4.749,34.122z"/> </g> <path fill="#C4CDD3" d="M77.262,21.012c2.227-0.61,3.205-0.61,6.162-0.61l0.387-0.581H55.861l5.006,5.764L77.262,21.012z"/> <path fill="#C4CDD3" d="M17.506,31.141c-3.247,1.044-5.498,2.078-5.498,2.078c1.455-1.633,3.4-2.821,5.528-3.713l-0.014-0.081
					c0,0-6.767,0.329-12.773,4.697c1.484-0.558,4.806-0.925,9.255-0.741c0.545,0.025,1.682,0.144,3.166,0.596
					C16.852,32.475,17.424,31.293,17.506,31.141z"/> </g> </g> </g> <g clip-path="url(#jays-color-SVGID_2_)"> <defs> <rect id="jays-color-SVGID_5_" width="72" height="72"/> </defs> <clipPath id="jays-color-SVGID_6_"> <use xlink:href="#jays-color-SVGID_5_" overflow="visible"/> </clipPath> <g clip-path="url(#jays-color-SVGID_6_)"> <image overflow="visible" width="94" height="94" xlink:href="5C0A1A3C844B04C1.png" transform="matrix(1 0 0 1 -11.1025 -10.9785)"> </image> <g> <polyline fill="none" stroke="#231F20" stroke-width="3" points="0.002,-2 74,-2 74,71.998 				"/> </g> </g> </g> <g clip-path="url(#jays-color-SVGID_2_)"> <path d="M71.6,0.4v71.2H0.4V0.4H71.6 M72,0H0v72h72V0L72,0z"/> </g> </g> </symbol><symbol viewBox="0 0 50.773 45" id="jays"><title>jays</title> <path fill="#FFFFFF" d="M2.97,19.078c-0.545-0.094-1.47,0.191-1.771-0.148c0.59,0,1.181,0,1.771,0
	C2.97,18.979,2.97,19.028,2.97,19.078z"/> <path fill="#FFFFFF" d="M2.97,19.078c0-0.049,0-0.099,0-0.148c0.639,0,1.279,0,1.918,0C4.539,19.269,3.564,18.983,2.97,19.078z"/> <path fill="#FFFFFF" d="M8.577,18.93c0.737,0,1.476,0,2.213,0c0,0.049,0,0.099,0,0.148C10.098,18.982,9.023,19.271,8.577,18.93z"/> <path fill="#FFFFFF" d="M1.199,19.373c0.303-0.245,1.615-0.245,1.918,0C2.478,19.373,1.839,19.373,1.199,19.373z"/> <path fill="#FFFFFF" d="M35.874,16.127c0.199,0.046,0.121,0.369,0.146,0.59c-0.944-0.481-1.514-1.338-2.213-2.065
	c0.775,0.551,1.289,1.366,2.066,1.917C35.874,16.422,35.874,16.274,35.874,16.127z"/> <path fill="#FFFFFF" d="M33.808,15.979c0.631-0.457,1.576,1.256,2.213,1.77C35.194,17.325,34.632,15.92,33.808,15.979z"/> <path fill="#FFFFFF" d="M42.954,16.569c0.104,0.438-0.31,1.391,0.442,1.181c-0.024,0.172-0.231,0.161-0.442,0.148
	C42.786,17.71,42.659,16.734,42.954,16.569z"/> <path fill="#FFFFFF" d="M16.397,25.57c0.603,0.479,1.144,1.02,1.621,1.621C17.417,26.713,16.875,26.172,16.397,25.57z"/> <path fill="#FFFFFF" d="M18.905,16.274c-0.006,0.486-0.25,0.735-0.147,1.328c-0.195,0-0.393,0-0.59,0
	C18.129,16.876,18.35,16.408,18.905,16.274z"/> <path fill="#FFFFFF" d="M10.79,18.93c0.79,0.096,1.965-0.193,2.508,0.148c-0.836,0-1.672,0-2.508,0
	C10.79,19.028,10.79,18.979,10.79,18.93z"/> <path fill="#FFFFFF" d="M23.036,17.159c2.312,0.099,5.018-0.196,7.083,0.147C27.808,17.209,25.102,17.503,23.036,17.159z"/> <path fill="#FFFFFF" d="M22.889,18.487c2.164-0.344,4.967-0.049,7.377-0.147C28.103,18.684,25.299,18.39,22.889,18.487z"/> <path fill="#FFFFFF" d="M30.118,27.932c0.737,0,1.477,0,2.215,0c-0.01,0.088-0.023,0.174-0.148,0.146
	C31.542,27.982,30.517,28.27,30.118,27.932z"/> <path fill="#FFFFFF" d="M50.772,19.522c-0.715-0.022-1.19-0.284-1.623-0.59c0.233-0.898,0.181-2.083,0.295-3.098
	c-1.006,0.125-1.87,0.39-2.95,0.442c-0.211-0.526-0.524-0.951-0.591-1.622c-0.479-0.039-0.312,0.572-0.735,0.59
	c-0.55,0.581-0.977,1.287-1.771,1.623c0.023-0.174-0.025-0.419,0.146-0.443c0.134-1.389,0.214-2.835,0.442-4.131
	c-0.532-0.13-0.983,0.575-1.327,0.147c0.267-2.29,1.226-3.888,2.065-5.606c-0.681-0.184-1.459,0.3-1.771,0
	c0.498-1.176,1.284-2.06,1.918-3.099c-1.238-0.206-2.515,0.335-3.246,0.147c0.137-0.912,0.346-2.412-0.146-3.099
	c-2.459,3.841-6.377,5.776-12.098,6.935c-5.065,1.025-11.991,0.748-15.346,3.836c-0.577,0.531-0.915,1.227-1.476,1.623
	c-0.261,0.184-0.85,0.227-1.328,0.59c-0.633,0.481-0.883,1.137-1.328,1.328c-2.404,1.029-9.444,0.892-9.885,3.688
	c-0.334,2.124,3.769,3.284,5.607,3.836c2.397,0.72,4.872,0.766,6.787,1.475c1.172,0.434,2.406,1.512,3.246,2.361
	c4.842,4.893,7.572,11.102,9.885,17.852c3.089-5.027,6.036-10.195,10.034-14.311c0.627-0.75,1.316-1.439,2.064-2.061
	c0.65-0.334,0.853-1.117,1.623-1.33c0.111,0.429,0.233,0.849,0.59,1.033c0.164-0.623,0.453-1.121,0.886-1.476
	c1.688,0.226,3.464,0.371,5.312,0.44c0.086-0.484-1.006-1.057-1.182-1.77C46.751,22.977,48.997,21.484,50.772,19.522z
	 M15.365,11.849c2.862-2.159,8.769-1.986,13.723-2.951c5.233-1.02,8.998-2.813,11.358-4.869c-0.103,0.635-0.188,1.287-0.442,1.771
	c0.949-0.381,1.963-0.693,2.951-1.033c-0.271,1.156-1.777,2.352-2.213,3.836c0.559,0.161,1.305-0.758,2.213-0.737
	c0.441,0.217-0.291,0.672-0.441,1.032c-0.407,0.972-0.594,2.485-0.887,3.541c-0.736-0.836-1.123-2.024-1.918-2.803
	c-0.718,1.101-1.419,2.218-2.064,3.393c-0.649-0.235-1.229-0.54-1.918-0.738c-0.291,1.03,0.275,2.476,0.148,3.836
	c0.199,0.046,0.121,0.369,0.146,0.59c-0.944-0.482-1.514-1.338-2.213-2.065c-0.384,0.401-0.526,1.047-0.738,1.622
	c-1.018-0.065-1.895-0.269-2.803-0.442c-0.401-0.106,0.105,0.695-0.295,0.59c-3.134-0.26-5.581-1.207-8.116-2.065
	c0.689-0.342,2.014-0.05,2.951-0.147c-2.863-1.031-9.658-1.829-9.296,2.213C12.537,15.855,13.74,13.074,15.365,11.849z
	 M1.199,18.929c0.877-0.889,2.776-1.508,4.427-1.917c1.593-0.395,3.528-0.306,4.869-0.885c1-0.433,1.169-1.61,2.213-1.771
	c0.384,1.665,1.241,2.872,2.656,2.95c1.502,0.084,2.017-1.496,3.54-1.77c2.048-0.368,2.197,0.985,4.132,1.623
	c2.312,0.099,5.018-0.196,7.081,0.148c0,0,0.001,0,0.002,0c-0.086,0.48,0.102,0.687,0.147,1.033c-0.001,0-0.002,0-0.002,0
	c-2.164,0.344-4.965,0.05-7.375,0.147h0c-1.525,0.65-1.907,1.595-3.215,1.655c-0.187,0.008-0.393-0.001-0.623-0.032
	c-1.333-0.178-2.596-1.962-4.124-1.875c-0.509,0.03-1.048,0.268-1.629,0.842c0,0-0.001,0-0.001,0l0,0c-0.836,0-1.672,0-2.508,0
	c-0.692-0.096-1.767,0.193-2.213-0.148c-1.229,0-2.458,0-3.687,0c0,0-0.001,0-0.002,0c-0.349,0.339-1.324,0.053-1.918,0.148
	c-0.544-0.094-1.467,0.19-1.769-0.147C1.2,18.93,1.2,18.93,1.199,18.929L1.199,18.929L1.199,18.929z M25.84,41.355
	c-1.715-5.612-4.453-10.201-7.822-14.164c-0.601-0.478-1.142-1.019-1.621-1.621c-3.35-3.781-11.208-3.055-15.197-6.197
	c0.303-0.245,1.615-0.245,1.919,0c3.295,0.197,6.43,0.553,9.59,0.885c-0.119,0.512,0.219,0.568,0.146,1.033
	c2.763,2.491,7.377,3.859,10.181,6.641c1.868,1.854,3.021,3.746,4.278,6.489c1.502-2.235,3.216-4.259,4.869-6.343
	c-0.642-0.096-1.667,0.191-2.064-0.146c0.639-1.773,1.668-3.152,2.51-4.723c0.836,0.391,1.328,1.131,2.063,1.623
	c-0.39,0.643-1.032,1.032-1.328,1.77c1.537,0.015,2.955-0.094,4.279-0.295C32.827,30.441,29.128,35.695,25.84,41.355z
	 M44.577,25.866c-1.511,0.202-3.983-1.015-4.722,0.295c-0.936-1.236-3.33-0.134-5.016-0.295c0.115-0.474,0.535-0.646,0.736-1.033
	c-1.773-1.718-3.676-3.307-5.605-4.869c0.205-0.286,0.763-0.219,1.033-0.443c0.021-0.987-0.318-2.295-0.148-2.951
	c0.754,0.229,1.644,0.325,2.508,0.443c0.296-0.197,0.33-0.655,0.443-1.033c0.631-0.457,1.576,1.256,2.213,1.77
	c1.463,0.088,0.117-3.166,0.295-4.574c0.465,0.224,0.937,0.44,1.476,0.59c0.787-0.838,1.264-1.982,1.918-2.951
	c0.772,0.849,1.211,2.037,1.918,2.951c0.649-0.038,0.869-0.509,1.623-0.442c-0.215,0.964-0.304,2.056-0.295,3.245
	c0.105,0.438-0.309,1.39,0.442,1.18c0.671-0.655,1.471-1.185,2.066-1.917c0.447,0.141,0.32,0.859,0.59,1.18
	c0.986-0.047,1.804-0.261,2.656-0.443c0.09,1.076-0.257,1.711-0.148,2.804c0.086,0.359,0.558,0.328,0.885,0.443
	c-1.651,1.789-3.655,3.228-5.459,4.87C43.952,25.221,44.833,25.6,44.577,25.866z"/> </symbol><symbol viewBox="0 0 600 232.64" id="jeep"><title>car-logos</title><path class="cls-1" d="M153.88,126.92c0,48.74-24.23,71.16-73.3,71.16-53.44,0-84.07-33.72-79.13-89.24H46.38v15.6c.56,25.67,15.82,32.66,30.35,33.43,20,1.19,32.3-12,32.53-31.29V1.86h44.62Z"/><path class="cls-1" d="M540.78,46.6c-13.21,0-26.16,5.28-36.82,14.47V51.5h-43.5V232.64H504v-56c7.67,6.76,25.39,13.08,38.45,13.08C574.68,189.31,600,164,600,121.93c-.15-47.95-17.06-75.5-59.22-75.33m15.09,74.32c0,17.68-10.36,37.11-25.17,37.11s-26.8-8.89-26.8-30.63l-.07-15.06c0-21.77,12.06-33.5,26.87-33.5s25.17,11.89,25.17,33.63Z"/><path class="cls-1" d="M378.6,47.28c-37.71,0-66.7,29.54-66.7,75.81,0,47.39,29.21,73.15,66.92,73.15,27.41,0,57.07-11.6,65.14-46.51H399.27c-3.38,8.35-10.09,12.4-17.5,12.4-12.34,0-24.82-10.62-25.71-27.74h90.64c6.19-56-24.49-87.11-68.09-87.11m-22.55,58.54C357.34,89.7,366.5,81.4,380.42,81.4c11,0,20.68,11.6,20.68,24.41Z"/><path class="cls-1" d="M234.61,47.28c-37.79,0-66.69,29.54-66.69,75.81,0,47.39,29.16,73.15,66.9,73.15,27.4,0,57-11.6,65.12-46.51H255.27c-3.37,8.35-10.11,12.4-17.55,12.4-12.32,0-24.78-10.62-25.67-27.74h90.62c6.17-56-24.46-87.11-68.06-87.11m-22.56,58.54C213.29,89.7,222.47,81.4,236.4,81.4c11,0,20.63,11.6,20.63,24.41Z"/></symbol><symbol viewBox="0 0 194.9 177.1" id="triangle"><title>triangle</title> <style type="text/css"> .st0{fill:#231F20;stroke:#FFFFFF;stroke-miterlimit:10;} </style> <polygon class="st0" points="194,0.5 97.4,176.1 0.8,0.5 "/> </symbol></svg>